<mxfile host="" modified="2021-02-18T16:11:31.968Z" agent="5.0 (Windows NT 6.2; Win64; x64) AppleWebKit/537.36 (KHTML, like Gecko) Chrome/84.0.4147.105 Safari/537.36" etag="F_qHSdcyfHQX5BFimwBo" version="13.7.9" type="embed" pages="18"><diagram name="webshop-microfrontends" id="R1CUhq_sZbtFIhOHjH6-"><mxGraphModel dx="1002" dy="462" grid="1" gridSize="10" guides="1" tooltips="1" connect="1" arrows="1" fold="1" page="1" pageScale="1" pageWidth="826" pageHeight="1169" background="#ffffff" math="0" shadow="0"><root><mxCell id="0"/><mxCell id="1" parent="0"/><mxCell id="7h7cmhbBcNI3N5crBgPi-71" value="" style="strokeWidth=1;shadow=0;align=center;html=1;shape=mxgraph.mockup.containers.browserWindow;rSize=0;strokeColor2=#C4C4C4;strokeColor3=#c4c4c4;mainText=,;recursiveResize=0;comic=0;horizontal=1;verticalAlign=middle;perimeterSpacing=0;noLabel=0;strokeColor=#CCCCCC;" parent="1" vertex="1"><mxGeometry x="110" y="140" width="950" height="550" as="geometry"/></mxCell><mxCell id="7h7cmhbBcNI3N5crBgPi-72" value="Webshop" style="strokeWidth=1;shadow=0;dashed=0;align=center;html=1;shape=mxgraph.mockup.containers.anchor;fontSize=17;fontColor=#666666;align=left;" parent="7h7cmhbBcNI3N5crBgPi-71" vertex="1"><mxGeometry x="60" y="12" width="110" height="26" as="geometry"/></mxCell><mxCell id="7h7cmhbBcNI3N5crBgPi-73" value="https://www.webshop.io" style="strokeWidth=1;shadow=0;dashed=0;align=center;html=1;shape=mxgraph.mockup.containers.anchor;rSize=0;fontSize=17;fontColor=#666666;align=left;" parent="7h7cmhbBcNI3N5crBgPi-71" vertex="1"><mxGeometry x="130" y="60" width="250" height="26" as="geometry"/></mxCell><mxCell id="7h7cmhbBcNI3N5crBgPi-74" value="&lt;b&gt;&lt;font style=&quot;font-size: 16px&quot; color=&quot;#517040&quot;&gt;Host App&lt;/font&gt;&lt;/b&gt;" style="rounded=0;whiteSpace=wrap;html=1;shadow=0;comic=1;strokeColor=#82b366;align=center;verticalAlign=top;strokeWidth=3;perimeterSpacing=0;glass=0;dashed=1;fillColor=#d5e8d4;" parent="7h7cmhbBcNI3N5crBgPi-71" vertex="1"><mxGeometry x="20" y="120" width="910" height="410" as="geometry"/></mxCell><mxCell id="7h7cmhbBcNI3N5crBgPi-75" value="&lt;font style=&quot;font-size: 16px&quot; color=&quot;#4c6487&quot;&gt;&lt;b&gt;Microfrontend&lt;/b&gt;&lt;br&gt;product-list&lt;/font&gt;" style="rounded=0;whiteSpace=wrap;html=1;shadow=0;comic=1;strokeColor=#6c8ebf;align=center;verticalAlign=middle;strokeWidth=2;glass=0;fillColor=#dae8fc;" parent="7h7cmhbBcNI3N5crBgPi-71" vertex="1"><mxGeometry x="50" y="160" width="160" height="350" as="geometry"/></mxCell><mxCell id="7h7cmhbBcNI3N5crBgPi-76" value="&lt;font style=&quot;font-size: 16px&quot; color=&quot;#4c6487&quot;&gt;&lt;b&gt;Microfrontend&lt;/b&gt;&lt;br&gt;product&lt;/font&gt;" style="rounded=0;whiteSpace=wrap;html=1;shadow=0;comic=1;strokeColor=#6c8ebf;align=center;verticalAlign=middle;strokeWidth=2;glass=0;fillColor=#dae8fc;" parent="7h7cmhbBcNI3N5crBgPi-71" vertex="1"><mxGeometry x="230" y="160" width="510" height="350" as="geometry"/></mxCell><mxCell id="7h7cmhbBcNI3N5crBgPi-78" value="&lt;font style=&quot;font-size: 16px&quot; color=&quot;#81638f&quot;&gt;&lt;b&gt;Microfrontend&lt;/b&gt;&lt;br&gt;shopping-cart&lt;/font&gt;" style="rounded=0;whiteSpace=wrap;html=1;shadow=0;comic=1;strokeColor=#9673a6;align=center;verticalAlign=middle;strokeWidth=2;glass=0;fillColor=#e1d5e7;" parent="7h7cmhbBcNI3N5crBgPi-71" vertex="1"><mxGeometry x="760" y="160" width="150" height="290" as="geometry"/></mxCell><mxCell id="7h7cmhbBcNI3N5crBgPi-79" value="&lt;font style=&quot;font-size: 16px&quot; color=&quot;#9e7200&quot;&gt;&lt;b&gt;Microfrontend&lt;/b&gt;&lt;br&gt;customer-reviews&lt;/font&gt;" style="rounded=0;whiteSpace=wrap;html=1;shadow=0;comic=1;strokeColor=#d79b00;align=center;verticalAlign=middle;strokeWidth=2;glass=0;fillColor=#ffe6cc;" parent="7h7cmhbBcNI3N5crBgPi-71" vertex="1"><mxGeometry x="240" y="400" width="480" height="100" as="geometry"/></mxCell><mxCell id="7h7cmhbBcNI3N5crBgPi-77" value="&lt;font style=&quot;font-size: 16px&quot;&gt;&lt;font color=&quot;#9c4744&quot;&gt;&lt;b&gt;Microfrontend&lt;/b&gt;&lt;br&gt;checkout&lt;/font&gt;&lt;br&gt;&lt;/font&gt;" style="rounded=0;whiteSpace=wrap;html=1;shadow=0;comic=1;strokeColor=#b85450;align=center;verticalAlign=middle;strokeWidth=2;glass=0;fillColor=#f8cecc;" parent="7h7cmhbBcNI3N5crBgPi-71" vertex="1"><mxGeometry x="760" y="460" width="150" height="50" as="geometry"/></mxCell></root></mxGraphModel></diagram><diagram id="NwYp4i5vGVmQkq5KpZBq" name="webshop-micro applications"><mxGraphModel dx="5462" dy="2261" grid="1" gridSize="10" guides="1" tooltips="1" connect="1" arrows="1" fold="1" page="1" pageScale="1" pageWidth="850" pageHeight="1100" math="0" shadow="0"><root><mxCell id="gY78Y_33jOwmSXS32Guk-0"/><mxCell id="gY78Y_33jOwmSXS32Guk-1" parent="gY78Y_33jOwmSXS32Guk-0"/><mxCell id="QAMjPqz0VGWwZE4ViXEM-0" value="&lt;p&gt;&lt;font color=&quot;#9c4744&quot;&gt;&lt;span style=&quot;font-size: 16px&quot;&gt;&lt;b&gt;Checkout App&lt;/b&gt;&lt;br&gt;&lt;/span&gt;« Micro Application »&lt;/font&gt;&lt;br&gt;&lt;/p&gt;" style="rounded=0;whiteSpace=wrap;html=1;shadow=0;comic=1;strokeColor=#b85450;align=center;verticalAlign=top;strokeWidth=2;glass=0;horizontal=1;fillColor=#f8cecc;" parent="gY78Y_33jOwmSXS32Guk-1" vertex="1"><mxGeometry x="-2450" y="-870" width="280" height="170" as="geometry"/></mxCell><mxCell id="QAMjPqz0VGWwZE4ViXEM-1" value="&lt;p style=&quot;white-space: normal&quot;&gt;&lt;b&gt;&lt;font color=&quot;#4d4d4d&quot;&gt;Manifest&lt;/font&gt;&lt;/b&gt;&lt;/p&gt;&lt;p style=&quot;white-space: normal&quot;&gt;&lt;font color=&quot;#4d4d4d&quot;&gt;Intentions&lt;br&gt;Capabilities&lt;/font&gt;&lt;/p&gt;" style="whiteSpace=wrap;html=1;shape=mxgraph.basic.document;strokeColor=#666666;strokeWidth=1;dashed=1;dashPattern=1 1;horizontal=1;verticalAlign=top;fillColor=#f5f5f5;fontColor=#333333;" parent="gY78Y_33jOwmSXS32Guk-1" vertex="1"><mxGeometry x="-2440" y="-800" width="70" height="85" as="geometry"/></mxCell><mxCell id="QAMjPqz0VGWwZE4ViXEM-2" value="&lt;p&gt;&lt;font&gt;&lt;span style=&quot;line-height: 120%&quot;&gt;&lt;b&gt;&lt;font style=&quot;font-size: 14px&quot;&gt;Microfrontend&lt;/font&gt;&lt;/b&gt;&lt;br&gt;&lt;/span&gt;&lt;span style=&quot;font-size: 14px&quot;&gt;checkout&lt;/span&gt;&lt;/font&gt;&lt;/p&gt;" style="rounded=0;whiteSpace=wrap;html=1;shadow=0;comic=1;align=center;verticalAlign=middle;strokeWidth=1;glass=0;horizontal=1;fontColor=#B85450;strokeColor=#B85450;" parent="gY78Y_33jOwmSXS32Guk-1" vertex="1"><mxGeometry x="-2350" y="-800" width="160" height="85" as="geometry"/></mxCell><mxCell id="QAMjPqz0VGWwZE4ViXEM-3" value="&lt;p&gt;&lt;font color=&quot;#9e7200&quot;&gt;&lt;span style=&quot;font-size: 16px&quot;&gt;&lt;b&gt;Customer Review App&lt;/b&gt;&lt;br&gt;&lt;/span&gt;« Micro Application »&lt;/font&gt;&lt;br&gt;&lt;/p&gt;" style="rounded=0;whiteSpace=wrap;html=1;shadow=0;comic=1;strokeColor=#d79b00;align=center;verticalAlign=top;strokeWidth=2;glass=0;horizontal=1;fillColor=#ffe6cc;" parent="gY78Y_33jOwmSXS32Guk-1" vertex="1"><mxGeometry x="-2150" y="-870" width="280" height="170" as="geometry"/></mxCell><mxCell id="QAMjPqz0VGWwZE4ViXEM-4" value="&lt;p style=&quot;white-space: normal&quot;&gt;&lt;b&gt;Manifest&lt;/b&gt;&lt;/p&gt;&lt;p style=&quot;white-space: normal&quot;&gt;Intentions&lt;br&gt;Capabilities&lt;/p&gt;" style="whiteSpace=wrap;html=1;shape=mxgraph.basic.document;strokeColor=#666666;strokeWidth=1;dashed=1;dashPattern=1 1;horizontal=1;verticalAlign=top;fontColor=#4D4D4D;fillColor=#f5f5f5;" parent="gY78Y_33jOwmSXS32Guk-1" vertex="1"><mxGeometry x="-2140" y="-800" width="70" height="85" as="geometry"/></mxCell><mxCell id="QAMjPqz0VGWwZE4ViXEM-5" value="&lt;p&gt;&lt;font&gt;&lt;span style=&quot;line-height: 120%&quot;&gt;&lt;b&gt;&lt;font style=&quot;font-size: 14px&quot;&gt;Microfrontend&lt;/font&gt;&lt;/b&gt;&lt;br&gt;&lt;/span&gt;&lt;span style=&quot;font-size: 14px&quot;&gt;customer-reviews&lt;/span&gt;&lt;/font&gt;&lt;/p&gt;" style="rounded=0;whiteSpace=wrap;html=1;shadow=0;comic=1;align=center;verticalAlign=middle;strokeWidth=1;glass=0;horizontal=1;strokeColor=#D79B00;fontColor=#D79B00;" parent="gY78Y_33jOwmSXS32Guk-1" vertex="1"><mxGeometry x="-2050" y="-800" width="160" height="85" as="geometry"/></mxCell><mxCell id="QAMjPqz0VGWwZE4ViXEM-6" value="&lt;p&gt;&lt;font color=&quot;#81638f&quot;&gt;&lt;span style=&quot;font-size: 16px&quot;&gt;&lt;b&gt;Shopping Cart App&lt;/b&gt;&lt;br&gt;&lt;/span&gt;« Micro Application »&lt;/font&gt;&lt;br&gt;&lt;/p&gt;" style="rounded=0;whiteSpace=wrap;html=1;shadow=0;comic=1;strokeColor=#9673a6;align=center;verticalAlign=top;strokeWidth=2;glass=0;horizontal=1;fillColor=#e1d5e7;" parent="gY78Y_33jOwmSXS32Guk-1" vertex="1"><mxGeometry x="-2750" y="-870" width="280" height="170" as="geometry"/></mxCell><mxCell id="QAMjPqz0VGWwZE4ViXEM-7" value="&lt;p style=&quot;white-space: normal&quot;&gt;&lt;b&gt;&lt;font color=&quot;#4d4d4d&quot;&gt;Manifest&lt;/font&gt;&lt;/b&gt;&lt;/p&gt;&lt;p style=&quot;white-space: normal&quot;&gt;&lt;font color=&quot;#4d4d4d&quot;&gt;Intentions&lt;br&gt;Capabilities&lt;/font&gt;&lt;/p&gt;" style="whiteSpace=wrap;html=1;shape=mxgraph.basic.document;strokeColor=#666666;strokeWidth=1;dashed=1;dashPattern=1 1;horizontal=1;verticalAlign=top;fillColor=#f5f5f5;fontColor=#333333;" parent="gY78Y_33jOwmSXS32Guk-1" vertex="1"><mxGeometry x="-2740" y="-800" width="70" height="85" as="geometry"/></mxCell><mxCell id="QAMjPqz0VGWwZE4ViXEM-8" value="&lt;p&gt;&lt;font&gt;&lt;span style=&quot;line-height: 120%&quot;&gt;&lt;b&gt;&lt;font style=&quot;font-size: 14px&quot;&gt;Microfrontend&lt;/font&gt;&lt;/b&gt;&lt;br&gt;&lt;/span&gt;&lt;span style=&quot;font-size: 14px&quot;&gt;shopping-cart&lt;/span&gt;&lt;/font&gt;&lt;/p&gt;" style="rounded=0;whiteSpace=wrap;html=1;shadow=0;comic=1;align=center;verticalAlign=top;strokeWidth=2;glass=0;horizontal=1;strokeColor=#9673a6;fillColor=#FFFFFF;fontColor=#9673A6;" parent="gY78Y_33jOwmSXS32Guk-1" vertex="1"><mxGeometry x="-2650" y="-800" width="160" height="85" as="geometry"/></mxCell><mxCell id="QAMjPqz0VGWwZE4ViXEM-9" value="&lt;p&gt;&lt;font color=&quot;#517040&quot;&gt;&lt;span style=&quot;font-size: 16px&quot;&gt;&lt;b&gt;Webshop&lt;/b&gt;&lt;br&gt;&lt;/span&gt;« Host Application »&lt;/font&gt;&lt;/p&gt;" style="rounded=0;whiteSpace=wrap;html=1;shadow=0;comic=1;strokeColor=#82b366;align=center;verticalAlign=top;strokeWidth=2;glass=0;horizontal=1;fillColor=#d5e8d4;" parent="gY78Y_33jOwmSXS32Guk-1" vertex="1"><mxGeometry x="-2650" y="-1060" width="260" height="170" as="geometry"/></mxCell><mxCell id="QAMjPqz0VGWwZE4ViXEM-10" value="&lt;p style=&quot;white-space: normal&quot;&gt;&lt;b&gt;Manifest&lt;/b&gt;&lt;/p&gt;&lt;p style=&quot;white-space: normal&quot;&gt;Intentions&lt;br&gt;Capabilities&lt;/p&gt;" style="whiteSpace=wrap;html=1;shape=mxgraph.basic.document;strokeColor=#666666;strokeWidth=1;dashed=1;dashPattern=1 1;horizontal=1;verticalAlign=top;fontColor=#4D4D4D;fillColor=#f5f5f5;" parent="gY78Y_33jOwmSXS32Guk-1" vertex="1"><mxGeometry x="-2555" y="-990" width="70" height="85" as="geometry"/></mxCell><mxCell id="QAMjPqz0VGWwZE4ViXEM-11" value="&lt;p&gt;&lt;font color=&quot;#4c6487&quot;&gt;&lt;span style=&quot;font-size: 16px&quot;&gt;&lt;b&gt;Product Catalog App&lt;/b&gt;&lt;br&gt;&lt;/span&gt;« Micro Application »&lt;/font&gt;&lt;br&gt;&lt;/p&gt;" style="rounded=0;whiteSpace=wrap;html=1;shadow=0;comic=1;strokeColor=#6c8ebf;align=center;verticalAlign=top;strokeWidth=2;glass=0;horizontal=1;fillColor=#dae8fc;" parent="gY78Y_33jOwmSXS32Guk-1" vertex="1"><mxGeometry x="-2360" y="-1060" width="450" height="170" as="geometry"/></mxCell><mxCell id="QAMjPqz0VGWwZE4ViXEM-12" value="&lt;p style=&quot;white-space: normal&quot;&gt;&lt;b&gt;Manifest&lt;/b&gt;&lt;/p&gt;&lt;p style=&quot;white-space: normal&quot;&gt;Intentions&lt;br&gt;Capabilities&lt;/p&gt;" style="whiteSpace=wrap;html=1;shape=mxgraph.basic.document;strokeColor=#666666;strokeWidth=1;dashed=1;dashPattern=1 1;horizontal=1;verticalAlign=top;fontColor=#4D4D4D;fillColor=#f5f5f5;" parent="gY78Y_33jOwmSXS32Guk-1" vertex="1"><mxGeometry x="-2350" y="-990" width="70" height="85" as="geometry"/></mxCell><mxCell id="QAMjPqz0VGWwZE4ViXEM-13" value="&lt;p&gt;&lt;font color=&quot;#ffffff&quot;&gt;&lt;span style=&quot;line-height: 120%&quot;&gt;&lt;b&gt;&lt;font style=&quot;font-size: 14px&quot;&gt;Microfrontend&lt;/font&gt;&lt;/b&gt;&lt;br&gt;&lt;/span&gt;&lt;span style=&quot;font-size: 14px&quot;&gt;product-list&lt;/span&gt;&lt;/font&gt;&lt;/p&gt;" style="rounded=0;whiteSpace=wrap;html=1;shadow=0;comic=0;strokeColor=none;align=center;verticalAlign=middle;fontColor=#0000CC;strokeWidth=1;glass=0;horizontal=1;fillColor=#6C8EBF;gradientColor=none;" parent="gY78Y_33jOwmSXS32Guk-1" vertex="1"><mxGeometry x="-2260" y="-990" width="160" height="85" as="geometry"/></mxCell><mxCell id="QAMjPqz0VGWwZE4ViXEM-14" value="&lt;p&gt;&lt;font&gt;&lt;span style=&quot;line-height: 120%&quot;&gt;&lt;b&gt;&lt;font style=&quot;font-size: 14px&quot;&gt;Microfrontend&lt;/font&gt;&lt;/b&gt;&lt;br&gt;&lt;/span&gt;&lt;span style=&quot;font-size: 14px&quot;&gt;product&lt;/span&gt;&lt;/font&gt;&lt;/p&gt;" style="rounded=0;whiteSpace=wrap;html=1;shadow=0;comic=1;align=center;verticalAlign=middle;strokeWidth=1;glass=0;horizontal=1;strokeColor=#6C8EBF;fontColor=#6C8EBF;" parent="gY78Y_33jOwmSXS32Guk-1" vertex="1"><mxGeometry x="-2090" y="-990" width="160" height="85" as="geometry"/></mxCell><mxCell id="nthQ2sJO2mtjTgCHCwOh-0" value="&lt;p&gt;&lt;font&gt;&lt;span style=&quot;line-height: 120%&quot;&gt;&lt;b&gt;&lt;font style=&quot;font-size: 14px&quot;&gt;Microfrontend&lt;/font&gt;&lt;/b&gt;&lt;br&gt;&lt;/span&gt;&lt;span style=&quot;font-size: 14px&quot;&gt;product-list&lt;/span&gt;&lt;/font&gt;&lt;/p&gt;" style="rounded=0;whiteSpace=wrap;html=1;shadow=0;comic=0;align=center;verticalAlign=middle;strokeWidth=1;glass=0;horizontal=1;strokeColor=#6C8EBF;fontColor=#6C8EBF;" parent="gY78Y_33jOwmSXS32Guk-1" vertex="1"><mxGeometry x="-2260" y="-990" width="160" height="85" as="geometry"/></mxCell></root></mxGraphModel></diagram><diagram name="intention-api" id="tUKS7bQTAbJead77KI8_"><mxGraphModel dx="2062" dy="2261" grid="1" gridSize="10" guides="1" tooltips="1" connect="1" arrows="1" fold="1" page="1" pageScale="1" pageWidth="850" pageHeight="1100" math="0" shadow="0"><root><mxCell id="nBmJqnReijPnVUxUTGMC-0"/><mxCell id="nBmJqnReijPnVUxUTGMC-1" parent="nBmJqnReijPnVUxUTGMC-0"/><mxCell id="nBmJqnReijPnVUxUTGMC-2" value="&lt;font style=&quot;font-size: 16px&quot;&gt;&lt;b&gt;Micro Application&lt;/b&gt;&lt;/font&gt;" style="whiteSpace=wrap;html=1;aspect=fixed;rounded=0;shadow=0;glass=0;comic=1;strokeColor=#808080;strokeWidth=3;fillColor=#ffffff;gradientColor=none;fontColor=#808080;horizontal=1;verticalAlign=top;" parent="nBmJqnReijPnVUxUTGMC-1" vertex="1"><mxGeometry x="155" y="-1020" width="160" height="160" as="geometry"/></mxCell><mxCell id="nBmJqnReijPnVUxUTGMC-5" value="&lt;b&gt;&lt;font style=&quot;font-size: 12px&quot;&gt;Manifest&lt;/font&gt;&lt;/b&gt;&lt;br&gt;&lt;br&gt;&lt;font style=&quot;font-size: 12px&quot;&gt;Intention&lt;/font&gt;" style="shape=note;whiteSpace=wrap;html=1;backgroundOutline=1;darkOpacity=0.05;rounded=0;shadow=0;glass=0;comic=1;strokeColor=#808080;strokeWidth=2;fillColor=#ffffff;gradientColor=none;fontColor=#808080;align=center;dashed=1;dashPattern=1 1;size=11;" parent="nBmJqnReijPnVUxUTGMC-1" vertex="1"><mxGeometry x="205" y="-960" width="60" height="80" as="geometry"/></mxCell><mxCell id="nBmJqnReijPnVUxUTGMC-30" value="&lt;font style=&quot;font-size: 16px&quot;&gt;&lt;b&gt;Micro Application&lt;/b&gt;&lt;/font&gt;" style="whiteSpace=wrap;html=1;aspect=fixed;rounded=0;shadow=0;glass=0;comic=1;strokeColor=#808080;strokeWidth=3;fillColor=#ffffff;gradientColor=none;fontColor=#808080;horizontal=1;verticalAlign=top;" parent="nBmJqnReijPnVUxUTGMC-1" vertex="1"><mxGeometry x="535" y="-1020" width="160" height="160" as="geometry"/></mxCell><mxCell id="nBmJqnReijPnVUxUTGMC-31" value="&lt;b&gt;&lt;font style=&quot;font-size: 12px&quot;&gt;Manifest&lt;/font&gt;&lt;/b&gt;&lt;br&gt;&lt;br&gt;&lt;font style=&quot;font-size: 12px&quot;&gt;Capability&lt;/font&gt;" style="shape=note;whiteSpace=wrap;html=1;backgroundOutline=1;darkOpacity=0.05;rounded=0;shadow=0;glass=0;comic=1;strokeColor=#808080;strokeWidth=2;fillColor=#ffffff;gradientColor=none;fontColor=#808080;align=center;dashed=1;dashPattern=1 1;size=11;" parent="nBmJqnReijPnVUxUTGMC-1" vertex="1"><mxGeometry x="585" y="-960" width="60" height="80" as="geometry"/></mxCell><mxCell id="eNRWKGgIjOV4t-hp1CGg-5" value="Platform" style="verticalLabelPosition=bottom;html=1;fillColor=#808080;verticalAlign=top;align=center;points=[[0.06,0.06,0],[0.94,0.06,0],[0.94,0.94,0],[0.06,0.94,0],[0.25,0,0],[0.5,0,0],[0.75,0,0],[1,0.25,0],[1,0.5,0],[1,0.75,0],[0.75,1,0],[0.5,1,0],[0.25,1,0],[0,0.75,0],[0,0.5,0],[0,0.25,0]];pointerEvents=1;shape=mxgraph.cisco_safe.architecture.router;rounded=0;shadow=0;glass=0;comic=0;strokeColor=#808080;strokeWidth=3;fontColor=#808080;" parent="nBmJqnReijPnVUxUTGMC-1" vertex="1"><mxGeometry x="405" y="-960" width="40" height="40" as="geometry"/></mxCell><mxCell id="eNRWKGgIjOV4t-hp1CGg-35" value="" style="group" parent="nBmJqnReijPnVUxUTGMC-1" vertex="1" connectable="0"><mxGeometry x="355" y="-1020" width="106" height="50" as="geometry"/></mxCell><mxCell id="eNRWKGgIjOV4t-hp1CGg-21" value="" style="html=1;verticalLabelPosition=bottom;align=center;labelBackgroundColor=#ffffff;verticalAlign=top;strokeWidth=2;strokeColor=#808080;shadow=0;dashed=0;shape=mxgraph.ios7.icons.mail;rounded=1;glass=0;comic=0;fillColor=#ffffff;gradientColor=none;fontColor=#808080;" parent="eNRWKGgIjOV4t-hp1CGg-35" vertex="1"><mxGeometry x="26" width="80" height="50" as="geometry"/></mxCell><mxCell id="eNRWKGgIjOV4t-hp1CGg-26" value="&lt;b&gt;&lt;font style=&quot;font-size: 14px&quot;&gt;Intent&lt;/font&gt;&lt;/b&gt;" style="text;html=1;strokeColor=none;fillColor=none;align=center;verticalAlign=middle;whiteSpace=wrap;rounded=0;shadow=0;glass=0;comic=0;fontColor=#808080;" parent="eNRWKGgIjOV4t-hp1CGg-35" vertex="1"><mxGeometry x="46" width="40" height="20" as="geometry"/></mxCell><mxCell id="Z2S5mUlPJt14vJSDWfk_-3" value="" style="group" parent="eNRWKGgIjOV4t-hp1CGg-35" vertex="1" connectable="0"><mxGeometry x="8" y="12.970000000000027" width="30.5" height="24.059999999999945" as="geometry"/></mxCell><mxCell id="Z2S5mUlPJt14vJSDWfk_-2" value="" style="group" parent="Z2S5mUlPJt14vJSDWfk_-3" vertex="1" connectable="0"><mxGeometry width="30.5" height="24.059999999999945" as="geometry"/></mxCell><mxCell id="Z2S5mUlPJt14vJSDWfk_-0" value="" style="group" parent="Z2S5mUlPJt14vJSDWfk_-2" vertex="1" connectable="0"><mxGeometry width="30.5" height="24.059999999999945" as="geometry"/></mxCell><mxCell id="h6Yq2lEhdELCnb3VPwom-1" value="" style="rounded=0;whiteSpace=wrap;html=1;shadow=0;comic=0;strokeWidth=1;fontFamily=Helvetica;fontSize=15;align=left;strokeColor=none;" parent="Z2S5mUlPJt14vJSDWfk_-0" vertex="1"><mxGeometry y="4" width="30" height="16" as="geometry"/></mxCell><mxCell id="h6Yq2lEhdELCnb3VPwom-0" value="" style="group" parent="Z2S5mUlPJt14vJSDWfk_-0" vertex="1" connectable="0"><mxGeometry x="8" width="22.5" height="24.060000000000002" as="geometry"/></mxCell><mxCell id="h6Yq2lEhdELCnb3VPwom-2" value="" style="line;strokeWidth=2;direction=south;html=1;rounded=0;shadow=0;glass=0;comic=0;fillColor=#ffffff;gradientColor=none;fontColor=#808080;align=center;rotation=90;strokeColor=#808080;" parent="h6Yq2lEhdELCnb3VPwom-0" vertex="1"><mxGeometry x="-0.06" y="-2.68" width="10" height="19.12" as="geometry"/></mxCell><mxCell id="h6Yq2lEhdELCnb3VPwom-3" value="" style="line;strokeWidth=2;direction=south;html=1;rounded=0;shadow=0;glass=0;comic=0;fillColor=#ffffff;gradientColor=none;fontColor=#808080;align=center;rotation=90;strokeColor=#808080;" parent="h6Yq2lEhdELCnb3VPwom-0" vertex="1"><mxGeometry x="4.9" y="3" width="10" height="18.44" as="geometry"/></mxCell><mxCell id="h6Yq2lEhdELCnb3VPwom-4" value="" style="line;strokeWidth=2;direction=south;html=1;rounded=0;shadow=0;glass=0;comic=0;fillColor=#ffffff;gradientColor=none;fontColor=#808080;align=center;rotation=90;strokeColor=#808080;" parent="h6Yq2lEhdELCnb3VPwom-0" vertex="1"><mxGeometry x="-2.41" y="9.75" width="10" height="14.26" as="geometry"/></mxCell><mxCell id="eNRWKGgIjOV4t-hp1CGg-36" value="" style="rounded=0;comic=0;strokeWidth=2;endArrow=blockThin;html=1;fontFamily=Comic Sans MS;fontStyle=1;shadow=0;fontColor=#808080;strokeColor=#808080;" parent="nBmJqnReijPnVUxUTGMC-1" edge="1"><mxGeometry width="50" height="50" relative="1" as="geometry"><mxPoint x="315" y="-940.4200000000001" as="sourcePoint"/><mxPoint x="405" y="-940" as="targetPoint"/></mxGeometry></mxCell><mxCell id="eNRWKGgIjOV4t-hp1CGg-37" value="" style="rounded=0;comic=0;strokeWidth=2;endArrow=blockThin;html=1;fontFamily=Comic Sans MS;fontStyle=1;shadow=0;fontColor=#808080;strokeColor=#808080;" parent="nBmJqnReijPnVUxUTGMC-1" edge="1"><mxGeometry width="50" height="50" relative="1" as="geometry"><mxPoint x="445" y="-940.4199999999998" as="sourcePoint"/><mxPoint x="535" y="-940" as="targetPoint"/></mxGeometry></mxCell></root></mxGraphModel></diagram><diagram id="WiSEI5pXLCI8F5DPGV2K" name="interceptor"><mxGraphModel dx="2062" dy="2261" grid="1" gridSize="10" guides="1" tooltips="1" connect="1" arrows="1" fold="1" page="1" pageScale="1" pageWidth="850" pageHeight="1100" math="0" shadow="0"><root><mxCell id="73TRR4c4fu8JGElaSNJu-0"/><mxCell id="73TRR4c4fu8JGElaSNJu-1" parent="73TRR4c4fu8JGElaSNJu-0"/><mxCell id="X3GOnapOohH9kGJYCu2k-2" value="" style="rounded=0;comic=0;strokeWidth=2;endArrow=blockThin;html=1;fontFamily=Comic Sans MS;fontStyle=1;shadow=0;fontColor=#808080;strokeColor=#808080;" edge="1" parent="73TRR4c4fu8JGElaSNJu-1"><mxGeometry width="50" height="50" relative="1" as="geometry"><mxPoint x="119" y="-963" as="sourcePoint"/><mxPoint x="509" y="-963" as="targetPoint"/></mxGeometry></mxCell><mxCell id="X3GOnapOohH9kGJYCu2k-0" value="&lt;font color=&quot;#808080&quot;&gt;&lt;font style=&quot;font-size: 16px&quot;&gt;&lt;b&gt;Interceptor Chain&lt;/b&gt;&lt;/font&gt;&lt;br&gt;&lt;font style=&quot;font-size: 12px&quot;&gt;&lt;sup&gt;« Host Application »&lt;/sup&gt;&lt;/font&gt;&lt;/font&gt;" style="rounded=0;whiteSpace=wrap;html=1;shadow=0;comic=1;strokeColor=#808080;strokeWidth=2;fontSize=20;fontColor=#B85450;horizontal=1;verticalAlign=top;" vertex="1" parent="73TRR4c4fu8JGElaSNJu-1"><mxGeometry x="260" y="-1080" width="197" height="200" as="geometry"/></mxCell><mxCell id="o9NzvVvLGRfMys9J0Vau-5" value="" style="group;fontSize=12;" vertex="1" connectable="0" parent="73TRR4c4fu8JGElaSNJu-1"><mxGeometry x="119" y="-969" width="140" height="59" as="geometry"/></mxCell><mxCell id="o9NzvVvLGRfMys9J0Vau-6" value="" style="html=1;verticalLabelPosition=bottom;align=center;labelBackgroundColor=#ffffff;verticalAlign=top;strokeWidth=2;strokeColor=#808080;shadow=0;dashed=0;shape=mxgraph.ios7.icons.mail;rounded=1;glass=0;comic=0;fillColor=#ffffff;gradientColor=none;fontColor=#808080;" vertex="1" parent="o9NzvVvLGRfMys9J0Vau-5"><mxGeometry x="46" y="-9" width="48" height="30" as="geometry"/></mxCell><mxCell id="X3GOnapOohH9kGJYCu2k-8" value="message&lt;br style=&quot;font-size: 12px;&quot;&gt;or&lt;br style=&quot;font-size: 12px;&quot;&gt;intent" style="text;html=1;strokeColor=none;fillColor=none;align=center;verticalAlign=middle;whiteSpace=wrap;rounded=0;shadow=0;comic=1;fontSize=12;fontColor=#808080;fontStyle=0" vertex="1" parent="o9NzvVvLGRfMys9J0Vau-5"><mxGeometry y="39" width="140" height="20" as="geometry"/></mxCell><mxCell id="mfMLM0kPIZdtulmj1zWX-5" value="Sender" style="shape=umlActor;verticalLabelPosition=bottom;labelBackgroundColor=#ffffff;verticalAlign=top;html=1;fontSize=16;fontStyle=1;fontColor=#808080;strokeColor=#808080;shadow=0;strokeWidth=2;" vertex="1" parent="73TRR4c4fu8JGElaSNJu-1"><mxGeometry x="60" y="-999" width="35" height="69" as="geometry"/></mxCell><mxCell id="X3GOnapOohH9kGJYCu2k-1" value="" style="endArrow=none;html=1;fontSize=20;fontColor=#B85450;strokeWidth=2;strokeColor=#808080;entryX=0.995;entryY=0.63;entryDx=0;entryDy=0;entryPerimeter=0;dashed=1;dashPattern=1 1;" edge="1" parent="73TRR4c4fu8JGElaSNJu-1"><mxGeometry width="50" height="50" relative="1" as="geometry"><mxPoint x="259" y="-963" as="sourcePoint"/><mxPoint x="456.0149999999999" y="-963" as="targetPoint"/></mxGeometry></mxCell><mxCell id="o9NzvVvLGRfMys9J0Vau-14" value="Interceptor" style="rounded=0;whiteSpace=wrap;html=1;strokeColor=#6c8ebf;comic=1;horizontal=0;fillColor=#dae8fc;fontColor=#6C8EBF;" vertex="1" parent="73TRR4c4fu8JGElaSNJu-1"><mxGeometry x="278.75" y="-1009" width="30" height="90" as="geometry"/></mxCell><mxCell id="mfMLM0kPIZdtulmj1zWX-14" value="Interceptor" style="rounded=0;whiteSpace=wrap;html=1;strokeColor=#d6b656;comic=1;horizontal=0;fillColor=#fff2cc;fontColor=#D6B656;" vertex="1" parent="73TRR4c4fu8JGElaSNJu-1"><mxGeometry x="319" y="-1009" width="30" height="90" as="geometry"/></mxCell><mxCell id="mfMLM0kPIZdtulmj1zWX-15" value="Interceptor" style="rounded=0;whiteSpace=wrap;html=1;strokeColor=#82b366;comic=1;horizontal=0;fillColor=#d5e8d4;fontColor=#82B366;" vertex="1" parent="73TRR4c4fu8JGElaSNJu-1"><mxGeometry x="360" y="-1009" width="30" height="90" as="geometry"/></mxCell><mxCell id="mfMLM0kPIZdtulmj1zWX-16" value="Interceptor" style="rounded=0;whiteSpace=wrap;html=1;strokeColor=#b85450;comic=1;horizontal=0;fillColor=#f8cecc;fontColor=#B85450;" vertex="1" parent="73TRR4c4fu8JGElaSNJu-1"><mxGeometry x="400" y="-1009" width="30" height="90" as="geometry"/></mxCell><mxCell id="X3GOnapOohH9kGJYCu2k-5" value="Receiver" style="shape=umlActor;verticalLabelPosition=bottom;labelBackgroundColor=#ffffff;verticalAlign=top;html=1;fontSize=16;fontStyle=1;fontColor=#808080;strokeColor=#808080;shadow=0;strokeWidth=2;" vertex="1" parent="73TRR4c4fu8JGElaSNJu-1"><mxGeometry x="530" y="-999" width="35" height="69" as="geometry"/></mxCell><mxCell id="JOAawAXpusIRITDEKucV-0" value="" style="group" vertex="1" connectable="0" parent="73TRR4c4fu8JGElaSNJu-1"><mxGeometry x="145" y="-975.03" width="30.5" height="24.059999999999945" as="geometry"/></mxCell><mxCell id="JOAawAXpusIRITDEKucV-1" value="" style="group" vertex="1" connectable="0" parent="JOAawAXpusIRITDEKucV-0"><mxGeometry width="30.5" height="24.059999999999945" as="geometry"/></mxCell><mxCell id="JOAawAXpusIRITDEKucV-2" value="" style="group" vertex="1" connectable="0" parent="JOAawAXpusIRITDEKucV-1"><mxGeometry width="30.5" height="24.059999999999945" as="geometry"/></mxCell><mxCell id="JOAawAXpusIRITDEKucV-3" value="" style="rounded=0;whiteSpace=wrap;html=1;shadow=0;comic=0;strokeWidth=1;fontFamily=Helvetica;fontSize=15;align=left;strokeColor=none;" vertex="1" parent="JOAawAXpusIRITDEKucV-2"><mxGeometry y="4" width="24" height="16" as="geometry"/></mxCell><mxCell id="JOAawAXpusIRITDEKucV-4" value="" style="group" vertex="1" connectable="0" parent="JOAawAXpusIRITDEKucV-2"><mxGeometry x="8" width="22.5" height="24.060000000000002" as="geometry"/></mxCell><mxCell id="JOAawAXpusIRITDEKucV-5" value="" style="line;strokeWidth=2;direction=south;html=1;rounded=0;shadow=0;glass=0;comic=0;fillColor=#ffffff;gradientColor=none;fontColor=#808080;align=center;rotation=90;strokeColor=#808080;" vertex="1" parent="JOAawAXpusIRITDEKucV-4"><mxGeometry x="-0.06" y="-2.68" width="10" height="19.12" as="geometry"/></mxCell><mxCell id="JOAawAXpusIRITDEKucV-6" value="" style="line;strokeWidth=2;direction=south;html=1;rounded=0;shadow=0;glass=0;comic=0;fillColor=#ffffff;gradientColor=none;fontColor=#808080;align=center;rotation=90;strokeColor=#808080;" vertex="1" parent="JOAawAXpusIRITDEKucV-4"><mxGeometry x="4.9" y="3" width="10" height="18.44" as="geometry"/></mxCell><mxCell id="JOAawAXpusIRITDEKucV-7" value="" style="line;strokeWidth=2;direction=south;html=1;rounded=0;shadow=0;glass=0;comic=0;fillColor=#ffffff;gradientColor=none;fontColor=#808080;align=center;rotation=90;strokeColor=#808080;" vertex="1" parent="JOAawAXpusIRITDEKucV-4"><mxGeometry x="-2.41" y="9.75" width="10" height="14.26" as="geometry"/></mxCell></root></mxGraphModel></diagram><diagram name="lookup-capabilities" id="dQa2b9lRz6hnEbsX3VPU"><mxGraphModel dx="2062" dy="2261" grid="1" gridSize="10" guides="1" tooltips="1" connect="1" arrows="1" fold="1" page="1" pageScale="1" pageWidth="850" pageHeight="1100" math="0" shadow="0"><root><mxCell id="D1Lxtm3pX78nJ7KA9t7y-0"/><mxCell id="D1Lxtm3pX78nJ7KA9t7y-1" parent="D1Lxtm3pX78nJ7KA9t7y-0"/><mxCell id="tr6w9J3W5bhUcqnUZzHz-0" value="&lt;font style=&quot;font-size: 18px&quot;&gt;Manifest Service&lt;/font&gt;" style="rounded=0;whiteSpace=wrap;html=1;shadow=0;glass=0;comic=1;strokeColor=#808080;strokeWidth=3;fillColor=#ffffff;gradientColor=none;fontColor=#808080;align=center;horizontal=1;rotation=0;verticalAlign=top;" parent="D1Lxtm3pX78nJ7KA9t7y-1" vertex="1"><mxGeometry x="490" y="-520" width="190" height="230" as="geometry"/></mxCell><mxCell id="tr6w9J3W5bhUcqnUZzHz-1" value="&lt;b&gt;&lt;font style=&quot;font-size: 14px&quot;&gt;Manifest&lt;/font&gt;&lt;/b&gt;&lt;br&gt;&lt;br&gt;&lt;font style=&quot;font-size: 12px&quot;&gt;Capabilities&lt;br&gt;&lt;/font&gt;" style="shape=note;whiteSpace=wrap;html=1;backgroundOutline=1;darkOpacity=0.05;rounded=0;shadow=0;glass=0;comic=1;strokeColor=#82b366;strokeWidth=2;fillColor=#d5e8d4;align=center;dashed=1;dashPattern=1 1;size=11;" parent="D1Lxtm3pX78nJ7KA9t7y-1" vertex="1"><mxGeometry x="575" y="-420" width="70" height="80" as="geometry"/></mxCell><mxCell id="tr6w9J3W5bhUcqnUZzHz-4" value="&lt;b&gt;&lt;font style=&quot;font-size: 14px&quot;&gt;Manifest&lt;/font&gt;&lt;/b&gt;&lt;br&gt;&lt;br&gt;&lt;font style=&quot;font-size: 12px&quot;&gt;Capabilities&lt;br&gt;&lt;/font&gt;" style="shape=note;whiteSpace=wrap;html=1;backgroundOutline=1;darkOpacity=0.05;rounded=0;shadow=0;glass=0;comic=1;strokeColor=#d79b00;strokeWidth=2;fillColor=#ffe6cc;align=center;dashed=1;dashPattern=1 1;size=11;" parent="D1Lxtm3pX78nJ7KA9t7y-1" vertex="1"><mxGeometry x="565" y="-430" width="70" height="80" as="geometry"/></mxCell><mxCell id="D1Lxtm3pX78nJ7KA9t7y-20" value="&lt;font style=&quot;font-size: 14px&quot;&gt;&lt;b&gt;Micro Application&lt;/b&gt;&lt;/font&gt;" style="shape=umlActor;verticalLabelPosition=bottom;labelBackgroundColor=#ffffff;verticalAlign=top;html=1;outlineConnect=0;rounded=0;shadow=0;glass=0;comic=1;strokeColor=#808080;strokeWidth=3;fillColor=#ffffff;gradientColor=none;fontColor=#808080;align=center;" parent="D1Lxtm3pX78nJ7KA9t7y-1" vertex="1"><mxGeometry x="310" y="-440" width="30" height="60" as="geometry"/></mxCell><mxCell id="D1Lxtm3pX78nJ7KA9t7y-25" value="" style="rounded=0;comic=1;jumpStyle=arc;orthogonalLoop=1;jettySize=auto;html=1;shadow=0;strokeColor=#808080;strokeWidth=2;fontColor=#808080;" parent="D1Lxtm3pX78nJ7KA9t7y-1" edge="1"><mxGeometry x="0.1642" y="21" relative="1" as="geometry"><mxPoint x="360" y="-410" as="sourcePoint"/><mxPoint x="470" y="-410" as="targetPoint"/><mxPoint as="offset"/></mxGeometry></mxCell><mxCell id="dZkMe7ZkXgxktubVugfk-4" value="&lt;font style=&quot;font-size: 14px&quot;&gt;Look up Capabilities&lt;/font&gt;" style="text;html=1;strokeColor=none;fillColor=none;align=center;verticalAlign=middle;whiteSpace=wrap;rounded=0;shadow=0;glass=0;comic=1;fontColor=#808080;rotation=0;" parent="D1Lxtm3pX78nJ7KA9t7y-1" vertex="1"><mxGeometry x="390" y="-450" width="40" height="20" as="geometry"/></mxCell><mxCell id="tr6w9J3W5bhUcqnUZzHz-2" value="&lt;b&gt;&lt;font style=&quot;font-size: 14px&quot;&gt;Manifest&lt;/font&gt;&lt;/b&gt;&lt;br&gt;&lt;br&gt;&lt;font style=&quot;font-size: 12px&quot;&gt;Capabilities&lt;br&gt;&lt;/font&gt;" style="shape=note;whiteSpace=wrap;html=1;backgroundOutline=1;darkOpacity=0.05;rounded=0;shadow=0;glass=0;comic=1;strokeColor=#b85450;strokeWidth=2;fillColor=#f8cecc;align=center;dashed=1;dashPattern=1 1;size=11;" parent="D1Lxtm3pX78nJ7KA9t7y-1" vertex="1"><mxGeometry x="545" y="-440" width="70" height="80" as="geometry"/></mxCell><mxCell id="tr6w9J3W5bhUcqnUZzHz-3" value="&lt;b&gt;&lt;font style=&quot;font-size: 14px&quot;&gt;Manifest&lt;/font&gt;&lt;/b&gt;&lt;br&gt;&lt;br&gt;&lt;font style=&quot;font-size: 12px&quot;&gt;Capabilities&lt;br&gt;&lt;/font&gt;" style="shape=note;whiteSpace=wrap;html=1;backgroundOutline=1;darkOpacity=0.05;rounded=0;shadow=0;glass=0;comic=1;strokeColor=#6c8ebf;strokeWidth=2;fillColor=#dae8fc;align=center;dashed=1;dashPattern=1 1;size=11;" parent="D1Lxtm3pX78nJ7KA9t7y-1" vertex="1"><mxGeometry x="525" y="-450" width="70" height="80" as="geometry"/></mxCell></root></mxGraphModel></diagram><diagram name="register-capabilities" id="4PmvqV0pQajXxt-TOHOx"><mxGraphModel dx="2062" dy="2261" grid="1" gridSize="10" guides="1" tooltips="1" connect="1" arrows="1" fold="1" page="1" pageScale="1" pageWidth="850" pageHeight="1100" math="0" shadow="0"><root><mxCell id="jnHj4tVTPdPWqgohJmZy-0"/><mxCell id="jnHj4tVTPdPWqgohJmZy-1" parent="jnHj4tVTPdPWqgohJmZy-0"/><mxCell id="P5K8aPiCJpxc7brZjSSi-0" value="&lt;font style=&quot;font-size: 18px&quot;&gt;Manifest Service&lt;/font&gt;" style="rounded=0;whiteSpace=wrap;html=1;shadow=0;glass=0;comic=1;strokeColor=#808080;strokeWidth=3;fillColor=#ffffff;gradientColor=none;fontColor=#808080;align=center;horizontal=1;rotation=0;verticalAlign=top;" parent="jnHj4tVTPdPWqgohJmZy-1" vertex="1"><mxGeometry x="490" y="-520" width="190" height="230" as="geometry"/></mxCell><mxCell id="P5K8aPiCJpxc7brZjSSi-4" value="&lt;font style=&quot;font-size: 14px&quot;&gt;&lt;b&gt;Micro Application&lt;/b&gt;&lt;/font&gt;" style="shape=umlActor;verticalLabelPosition=bottom;labelBackgroundColor=#ffffff;verticalAlign=top;html=1;outlineConnect=0;rounded=0;shadow=0;glass=0;comic=1;strokeColor=#808080;strokeWidth=3;fillColor=#ffffff;gradientColor=none;fontColor=#808080;align=center;" parent="jnHj4tVTPdPWqgohJmZy-1" vertex="1"><mxGeometry x="310" y="-440" width="30" height="60" as="geometry"/></mxCell><mxCell id="P5K8aPiCJpxc7brZjSSi-5" value="" style="rounded=0;comic=1;jumpStyle=arc;orthogonalLoop=1;jettySize=auto;html=1;shadow=0;strokeColor=#808080;strokeWidth=2;fontColor=#808080;" parent="jnHj4tVTPdPWqgohJmZy-1" edge="1"><mxGeometry x="0.1642" y="21" relative="1" as="geometry"><mxPoint x="360" y="-410" as="sourcePoint"/><mxPoint x="470" y="-410" as="targetPoint"/><mxPoint as="offset"/></mxGeometry></mxCell><mxCell id="P5K8aPiCJpxc7brZjSSi-6" value="&lt;font style=&quot;font-size: 14px&quot;&gt;Register Capabilities&lt;/font&gt;" style="text;html=1;strokeColor=none;fillColor=none;align=center;verticalAlign=middle;whiteSpace=wrap;rounded=0;shadow=0;glass=0;comic=1;fontColor=#808080;rotation=0;" parent="jnHj4tVTPdPWqgohJmZy-1" vertex="1"><mxGeometry x="390" y="-450" width="40" height="20" as="geometry"/></mxCell><mxCell id="OuT8Z4KF5En3RYQsbjcJ-0" value="&lt;b&gt;&lt;font style=&quot;font-size: 14px&quot;&gt;Manifest&lt;/font&gt;&lt;/b&gt;&lt;br&gt;&lt;br&gt;&lt;font style=&quot;font-size: 12px&quot;&gt;Capabilities&lt;br&gt;&lt;/font&gt;" style="shape=note;whiteSpace=wrap;html=1;backgroundOutline=1;darkOpacity=0.05;rounded=0;shadow=0;glass=0;comic=1;strokeColor=#82b366;strokeWidth=2;fillColor=#d5e8d4;align=center;dashed=1;dashPattern=1 1;size=11;" vertex="1" parent="jnHj4tVTPdPWqgohJmZy-1"><mxGeometry x="575" y="-420" width="70" height="80" as="geometry"/></mxCell><mxCell id="OuT8Z4KF5En3RYQsbjcJ-1" value="&lt;b&gt;&lt;font style=&quot;font-size: 14px&quot;&gt;Manifest&lt;/font&gt;&lt;/b&gt;&lt;br&gt;&lt;br&gt;&lt;font style=&quot;font-size: 12px&quot;&gt;Capabilities&lt;br&gt;&lt;/font&gt;" style="shape=note;whiteSpace=wrap;html=1;backgroundOutline=1;darkOpacity=0.05;rounded=0;shadow=0;glass=0;comic=1;strokeColor=#d79b00;strokeWidth=2;fillColor=#ffe6cc;align=center;dashed=1;dashPattern=1 1;size=11;" vertex="1" parent="jnHj4tVTPdPWqgohJmZy-1"><mxGeometry x="565" y="-430" width="70" height="80" as="geometry"/></mxCell><mxCell id="OuT8Z4KF5En3RYQsbjcJ-2" value="&lt;b&gt;&lt;font style=&quot;font-size: 14px&quot;&gt;Manifest&lt;/font&gt;&lt;/b&gt;&lt;br&gt;&lt;br&gt;&lt;font style=&quot;font-size: 12px&quot;&gt;Capabilities&lt;br&gt;&lt;/font&gt;" style="shape=note;whiteSpace=wrap;html=1;backgroundOutline=1;darkOpacity=0.05;rounded=0;shadow=0;glass=0;comic=1;strokeColor=#b85450;strokeWidth=2;fillColor=#f8cecc;align=center;dashed=1;dashPattern=1 1;size=11;" vertex="1" parent="jnHj4tVTPdPWqgohJmZy-1"><mxGeometry x="545" y="-440" width="70" height="80" as="geometry"/></mxCell><mxCell id="OuT8Z4KF5En3RYQsbjcJ-3" value="&lt;b&gt;&lt;font style=&quot;font-size: 14px&quot;&gt;Manifest&lt;/font&gt;&lt;/b&gt;&lt;br&gt;&lt;br&gt;&lt;font style=&quot;font-size: 12px&quot;&gt;Capabilities&lt;br&gt;&lt;/font&gt;" style="shape=note;whiteSpace=wrap;html=1;backgroundOutline=1;darkOpacity=0.05;rounded=0;shadow=0;glass=0;comic=1;strokeColor=#6c8ebf;strokeWidth=2;fillColor=#dae8fc;align=center;dashed=1;dashPattern=1 1;size=11;" vertex="1" parent="jnHj4tVTPdPWqgohJmZy-1"><mxGeometry x="525" y="-450" width="70" height="80" as="geometry"/></mxCell></root></mxGraphModel></diagram><diagram name="capability-contribution" id="Wg1fieu31mIMg-na9lbU"><mxGraphModel dx="1212" dy="2261" grid="1" gridSize="10" guides="1" tooltips="1" connect="1" arrows="1" fold="1" page="1" pageScale="1" pageWidth="850" pageHeight="1100" math="0" shadow="0"><root><mxCell id="L7oAKXMQhD4TpimE3mad-0"/><mxCell id="L7oAKXMQhD4TpimE3mad-1" parent="L7oAKXMQhD4TpimE3mad-0"/><mxCell id="nt-yA40vmJ-hhymK1LvL-0" value="" style="strokeWidth=1;shadow=0;align=center;html=1;shape=mxgraph.mockup.containers.browserWindow;rSize=0;strokeColor2=#C4C4C4;strokeColor3=#c4c4c4;mainText=,;recursiveResize=0;comic=0;horizontal=1;verticalAlign=middle;perimeterSpacing=0;noLabel=0;strokeColor=#CCCCCC;" parent="L7oAKXMQhD4TpimE3mad-1" vertex="1"><mxGeometry x="1020" y="-55" width="777" height="320" as="geometry"/></mxCell><mxCell id="nt-yA40vmJ-hhymK1LvL-1" value="Webshop" style="strokeWidth=1;shadow=0;dashed=0;align=center;html=1;shape=mxgraph.mockup.containers.anchor;fontSize=17;fontColor=#666666;align=left;" parent="nt-yA40vmJ-hhymK1LvL-0" vertex="1"><mxGeometry x="60" y="12" width="110" height="26" as="geometry"/></mxCell><mxCell id="nt-yA40vmJ-hhymK1LvL-2" value="https://www.webshop.io" style="strokeWidth=1;shadow=0;dashed=0;align=center;html=1;shape=mxgraph.mockup.containers.anchor;rSize=0;fontSize=17;fontColor=#666666;align=left;" parent="nt-yA40vmJ-hhymK1LvL-0" vertex="1"><mxGeometry x="130" y="60" width="250" height="26" as="geometry"/></mxCell><mxCell id="f9TYaFWomR5muZDaiXRZ-80" value="&lt;font style=&quot;font-size: 16px&quot;&gt;&amp;nbsp; &amp;nbsp;User Account&lt;/font&gt;" style="strokeColor=#808080;fillColor=#fff2cc;html=1;shadow=0;dashed=0;shape=mxgraph.bootstrap.rightButton;rSize=5;perimeter=none;fontSize=14;whiteSpace=wrap;align=left;" parent="L7oAKXMQhD4TpimE3mad-1" vertex="1"><mxGeometry x="1617" y="65" width="170" height="40" as="geometry"/></mxCell><mxCell id="f9TYaFWomR5muZDaiXRZ-104" value="" style="html=1;verticalLabelPosition=bottom;align=center;labelBackgroundColor=#ffffff;verticalAlign=top;strokeWidth=1;strokeColor=#D6B656;shadow=0;dashed=0;shape=mxgraph.ios7.icons.user;fillColor=none;" parent="L7oAKXMQhD4TpimE3mad-1" vertex="1"><mxGeometry x="1747" y="72.12" width="26" height="25.76" as="geometry"/></mxCell><mxCell id="f9TYaFWomR5muZDaiXRZ-78" value="&lt;font style=&quot;font-size: 16px&quot;&gt;&amp;nbsp; Shopping Cart&amp;nbsp;&lt;/font&gt;" style="strokeColor=#808080;fillColor=#dae8fc;html=1;shadow=0;dashed=0;shape=mxgraph.bootstrap.leftButton;rSize=5;perimeter=none;fontSize=14;whiteSpace=wrap;align=left;" parent="L7oAKXMQhD4TpimE3mad-1" vertex="1"><mxGeometry x="1327" y="65" width="160" height="40" as="geometry"/></mxCell><mxCell id="f9TYaFWomR5muZDaiXRZ-103" value="" style="html=1;verticalLabelPosition=bottom;align=center;labelBackgroundColor=#ffffff;verticalAlign=top;strokeWidth=1;strokeColor=#6C8EBF;shadow=0;dashed=0;shape=mxgraph.ios7.icons.shopping_cart;fillColor=none;" parent="L7oAKXMQhD4TpimE3mad-1" vertex="1"><mxGeometry x="1457" y="74.51999999999998" width="21.65" height="18.4" as="geometry"/></mxCell><mxCell id="f9TYaFWomR5muZDaiXRZ-79" value="&lt;font style=&quot;font-size: 16px&quot;&gt;&amp;nbsp; Checkout&lt;/font&gt;" style="strokeColor=#808080;fillColor=#d5e8d4;html=1;shadow=0;dashed=0;shape=mxgraph.bootstrap.rect;perimeter=none;fontSize=14;whiteSpace=wrap;align=left;" parent="L7oAKXMQhD4TpimE3mad-1" vertex="1"><mxGeometry x="1487" y="65" width="130" height="40" as="geometry"/></mxCell><mxCell id="f9TYaFWomR5muZDaiXRZ-133" value="" style="group" parent="L7oAKXMQhD4TpimE3mad-1" vertex="1" connectable="0"><mxGeometry x="1574" y="75.74000000000001" width="35" height="18.52" as="geometry"/></mxCell><mxCell id="f9TYaFWomR5muZDaiXRZ-130" value="" style="group" parent="f9TYaFWomR5muZDaiXRZ-133" vertex="1" connectable="0"><mxGeometry width="35" height="18.52" as="geometry"/></mxCell><mxCell id="f9TYaFWomR5muZDaiXRZ-128" value="" style="rounded=1;whiteSpace=wrap;html=1;strokeColor=#82B366;strokeWidth=1;fillColor=none;gradientColor=none;fontColor=#0080F0;align=left;" parent="f9TYaFWomR5muZDaiXRZ-130" vertex="1"><mxGeometry x="8.75" width="26.25" height="18.52" as="geometry"/></mxCell><mxCell id="f9TYaFWomR5muZDaiXRZ-129" value="" style="rounded=0;whiteSpace=wrap;html=1;strokeColor=#82B366;strokeWidth=1;fillColor=#82B366;gradientColor=none;fontColor=#0080F0;align=left;" parent="f9TYaFWomR5muZDaiXRZ-130" vertex="1"><mxGeometry x="9" y="5.26" width="25" height="3.08" as="geometry"/></mxCell><mxCell id="dGZxXo182Zx5gDU3JFe_-0" value="&lt;div style=&quot;text-align: center&quot;&gt;&lt;font size=&quot;1&quot;&gt;&lt;b style=&quot;font-size: 20px&quot;&gt;Manifest of the 'Shopping Cart Application'&lt;/b&gt;&lt;/font&gt;&lt;/div&gt;&lt;div style=&quot;font-size: 17px&quot;&gt;&lt;font face=&quot;Courier New&quot; style=&quot;font-size: 17px&quot;&gt;&lt;br&gt;&lt;/font&gt;&lt;/div&gt;&lt;div style=&quot;font-size: 16px&quot;&gt;&lt;font face=&quot;Courier New&quot; style=&quot;font-size: 16px&quot;&gt;{&lt;/font&gt;&lt;/div&gt;&lt;div style=&quot;font-size: 16px&quot;&gt;&lt;font face=&quot;Courier New&quot; style=&quot;font-size: 16px&quot;&gt;&amp;nbsp; &quot;name&quot;: &quot;Shopping Cart Application&quot;,&lt;/font&gt;&lt;/div&gt;&lt;div style=&quot;font-size: 16px&quot;&gt;&lt;font face=&quot;Courier New&quot; style=&quot;font-size: 16px&quot;&gt;&amp;nbsp; &quot;capabilities&quot;: [&lt;/font&gt;&lt;/div&gt;&lt;div style=&quot;font-size: 16px&quot;&gt;&lt;font face=&quot;Courier New&quot; style=&quot;font-size: 16px&quot;&gt;&amp;nbsp; &amp;nbsp; {&lt;/font&gt;&lt;/div&gt;&lt;div style=&quot;font-size: 16px&quot;&gt;&lt;font face=&quot;Courier New&quot; style=&quot;font-size: 16px&quot;&gt;&amp;nbsp; &amp;nbsp; &amp;nbsp; &quot;description&quot;: &quot;Opens the shopping cart&quot;,&lt;/font&gt;&lt;/div&gt;&lt;div style=&quot;font-size: 16px&quot;&gt;&lt;font face=&quot;Courier New&quot; style=&quot;font-size: 16px&quot;&gt;&amp;nbsp; &amp;nbsp; &amp;nbsp; &quot;&lt;b&gt;type&lt;/b&gt;&quot;: &quot;&lt;b&gt;toolbar-item&lt;/b&gt;&quot;,&lt;/font&gt;&lt;/div&gt;&lt;div style=&quot;font-size: 16px&quot;&gt;&lt;font face=&quot;Courier New&quot; style=&quot;font-size: 16px&quot;&gt;&amp;nbsp; &amp;nbsp; &amp;nbsp; &quot;&lt;b&gt;qualifier&lt;/b&gt;&quot;: {&lt;/font&gt;&lt;/div&gt;&lt;div style=&quot;font-size: 16px&quot;&gt;&lt;font face=&quot;Courier New&quot; style=&quot;font-size: 16px&quot;&gt;&amp;nbsp; &amp;nbsp; &amp;nbsp; &amp;nbsp; &quot;&lt;b&gt;toolbar&lt;/b&gt;&quot;: &quot;&lt;b&gt;main&lt;/b&gt;&quot;,&lt;/font&gt;&lt;/div&gt;&lt;div style=&quot;font-size: 16px&quot;&gt;&lt;font face=&quot;Courier New&quot; style=&quot;font-size: 16px&quot;&gt;&amp;nbsp; &amp;nbsp; &amp;nbsp; &amp;nbsp; &quot;&lt;b&gt;action&lt;/b&gt;&quot;: &quot;&lt;b&gt;openShoppingCart&lt;/b&gt;&quot;&lt;/font&gt;&lt;/div&gt;&lt;div style=&quot;font-size: 16px&quot;&gt;&lt;font face=&quot;Courier New&quot; style=&quot;font-size: 16px&quot;&gt;&amp;nbsp; &amp;nbsp; &amp;nbsp; }&lt;/font&gt;&lt;/div&gt;&lt;div style=&quot;font-size: 16px&quot;&gt;&lt;font face=&quot;Courier New&quot; style=&quot;font-size: 16px&quot;&gt;&lt;div&gt;&amp;nbsp; &amp;nbsp; &amp;nbsp; &quot;properties&quot;: {&lt;/div&gt;&lt;div&gt;&amp;nbsp; &amp;nbsp; &amp;nbsp; &amp;nbsp; &lt;b&gt;&quot;label&quot;: &quot;Shopping Cart&quot;&lt;/b&gt;,&lt;/div&gt;&lt;div&gt;&amp;nbsp; &amp;nbsp; &amp;nbsp; }&lt;/div&gt;&lt;/font&gt;&lt;/div&gt;&lt;div style=&quot;font-size: 16px&quot;&gt;&lt;font face=&quot;Courier New&quot; style=&quot;font-size: 16px&quot;&gt;&amp;nbsp; &amp;nbsp; }&lt;/font&gt;&lt;/div&gt;&lt;div style=&quot;font-size: 16px&quot;&gt;&lt;font face=&quot;Courier New&quot; style=&quot;font-size: 16px&quot;&gt;&amp;nbsp; ]&lt;/font&gt;&lt;/div&gt;&lt;div style=&quot;font-size: 16px&quot;&gt;&lt;font face=&quot;Courier New&quot; style=&quot;font-size: 16px&quot;&gt;}&lt;/font&gt;&lt;/div&gt;" style="shape=note;whiteSpace=wrap;html=1;backgroundOutline=1;darkOpacity=0.05;rounded=0;shadow=0;glass=0;comic=1;strokeColor=#6c8ebf;strokeWidth=2;fillColor=#dae8fc;align=left;dashed=1;dashPattern=1 1;size=11;verticalAlign=top;" parent="L7oAKXMQhD4TpimE3mad-1" vertex="1"><mxGeometry x="1027" y="280" width="460" height="390" as="geometry"/></mxCell><mxCell id="Ox4kpdyAFtpOHoj2yFRj-0" value="&lt;div style=&quot;text-align: center&quot;&gt;&lt;font size=&quot;1&quot;&gt;&lt;b style=&quot;font-size: 20px&quot;&gt;Manifest of the 'Checkout Application'&lt;/b&gt;&lt;/font&gt;&lt;/div&gt;&lt;div style=&quot;font-size: 17px&quot;&gt;&lt;font face=&quot;Courier New&quot; style=&quot;font-size: 17px&quot;&gt;&lt;br&gt;&lt;/font&gt;&lt;/div&gt;&lt;div style=&quot;font-size: 16px&quot;&gt;&lt;font face=&quot;Courier New&quot; style=&quot;font-size: 16px&quot;&gt;{&lt;/font&gt;&lt;/div&gt;&lt;div style=&quot;font-size: 16px&quot;&gt;&lt;font face=&quot;Courier New&quot; style=&quot;font-size: 16px&quot;&gt;&amp;nbsp; &quot;name&quot;: &quot;Checkout Application&quot;,&lt;/font&gt;&lt;/div&gt;&lt;div style=&quot;font-size: 16px&quot;&gt;&lt;font face=&quot;Courier New&quot; style=&quot;font-size: 16px&quot;&gt;&amp;nbsp; &quot;capabilities&quot;: [&lt;/font&gt;&lt;/div&gt;&lt;div style=&quot;font-size: 16px&quot;&gt;&lt;font face=&quot;Courier New&quot; style=&quot;font-size: 16px&quot;&gt;&amp;nbsp; &amp;nbsp; {&lt;/font&gt;&lt;/div&gt;&lt;div style=&quot;font-size: 16px&quot;&gt;&lt;font face=&quot;Courier New&quot; style=&quot;font-size: 16px&quot;&gt;&amp;nbsp; &amp;nbsp; &amp;nbsp; &quot;description&quot;: &quot;Allows the user to purchase the products&quot;,&lt;/font&gt;&lt;/div&gt;&lt;div style=&quot;font-size: 16px&quot;&gt;&lt;font face=&quot;Courier New&quot; style=&quot;font-size: 16px&quot;&gt;&amp;nbsp; &amp;nbsp; &amp;nbsp; &quot;&lt;b&gt;type&lt;/b&gt;&quot;: &quot;&lt;b&gt;toolbar-item&lt;/b&gt;&quot;,&lt;/font&gt;&lt;/div&gt;&lt;div style=&quot;font-size: 16px&quot;&gt;&lt;font face=&quot;Courier New&quot; style=&quot;font-size: 16px&quot;&gt;&amp;nbsp; &amp;nbsp; &amp;nbsp; &quot;&lt;b&gt;qualifier&lt;/b&gt;&quot;: {&lt;/font&gt;&lt;/div&gt;&lt;div style=&quot;font-size: 16px&quot;&gt;&lt;font face=&quot;Courier New&quot; style=&quot;font-size: 16px&quot;&gt;&amp;nbsp; &amp;nbsp; &amp;nbsp; &amp;nbsp; &quot;&lt;b&gt;toolbar&lt;/b&gt;&quot;: &quot;&lt;b&gt;main&lt;/b&gt;&quot;,&lt;/font&gt;&lt;/div&gt;&lt;div style=&quot;font-size: 16px&quot;&gt;&lt;font face=&quot;Courier New&quot; style=&quot;font-size: 16px&quot;&gt;&amp;nbsp; &amp;nbsp; &amp;nbsp; &amp;nbsp; &quot;&lt;b&gt;action&lt;/b&gt;&quot;: &quot;&lt;b&gt;checkout&lt;/b&gt;&quot;&lt;/font&gt;&lt;/div&gt;&lt;div style=&quot;font-size: 16px&quot;&gt;&lt;font face=&quot;Courier New&quot; style=&quot;font-size: 16px&quot;&gt;&amp;nbsp; &amp;nbsp; &amp;nbsp; }&lt;/font&gt;&lt;/div&gt;&lt;div style=&quot;font-size: 16px&quot;&gt;&lt;div style=&quot;font-family: &amp;#34;courier new&amp;#34;&quot;&gt;&amp;nbsp; &amp;nbsp; &amp;nbsp; &quot;properties&quot;: {&lt;/div&gt;&lt;div style=&quot;font-family: &amp;#34;courier new&amp;#34;&quot;&gt;&amp;nbsp; &amp;nbsp; &amp;nbsp; &amp;nbsp; &lt;b&gt;&quot;label&quot;: &quot;Checkout&quot;&lt;/b&gt;,&lt;/div&gt;&lt;div style=&quot;font-family: &amp;#34;courier new&amp;#34;&quot;&gt;&amp;nbsp; &amp;nbsp; &amp;nbsp; }&lt;/div&gt;&lt;/div&gt;&lt;div style=&quot;font-size: 16px&quot;&gt;&lt;font face=&quot;Courier New&quot; style=&quot;font-size: 16px&quot;&gt;&amp;nbsp; &amp;nbsp; }&lt;/font&gt;&lt;/div&gt;&lt;div style=&quot;font-size: 16px&quot;&gt;&lt;font face=&quot;Courier New&quot; style=&quot;font-size: 16px&quot;&gt;&amp;nbsp; ]&lt;/font&gt;&lt;/div&gt;&lt;div style=&quot;font-size: 16px&quot;&gt;&lt;font face=&quot;Courier New&quot; style=&quot;font-size: 16px&quot;&gt;}&lt;/font&gt;&lt;/div&gt;" style="shape=note;whiteSpace=wrap;html=1;backgroundOutline=1;darkOpacity=0.05;rounded=0;shadow=0;glass=0;comic=1;strokeColor=#82b366;strokeWidth=2;fillColor=#d5e8d4;align=left;dashed=1;dashPattern=1 1;size=11;verticalAlign=top;" parent="L7oAKXMQhD4TpimE3mad-1" vertex="1"><mxGeometry x="1236.25" y="700" width="631.5" height="390" as="geometry"/></mxCell><mxCell id="77B7j-d75IAjCiOBmBS8-0" value="&lt;div style=&quot;text-align: center ; font-size: 20px&quot;&gt;&lt;font style=&quot;font-size: 20px&quot;&gt;&lt;b&gt;Manifest of the 'User Account Application'&lt;/b&gt;&lt;/font&gt;&lt;/div&gt;&lt;div style=&quot;font-size: 20px&quot;&gt;&lt;font face=&quot;Courier New&quot; style=&quot;font-size: 20px&quot;&gt;&lt;br&gt;&lt;/font&gt;&lt;/div&gt;&lt;div style=&quot;font-size: 16px&quot;&gt;&lt;font face=&quot;Courier New&quot; style=&quot;font-size: 16px&quot;&gt;{&lt;/font&gt;&lt;/div&gt;&lt;div style=&quot;font-size: 16px&quot;&gt;&lt;font face=&quot;Courier New&quot; style=&quot;font-size: 16px&quot;&gt;&amp;nbsp; &quot;name&quot;: &quot;User Account Application&quot;,&lt;/font&gt;&lt;/div&gt;&lt;div style=&quot;font-size: 16px&quot;&gt;&lt;font face=&quot;Courier New&quot; style=&quot;font-size: 16px&quot;&gt;&amp;nbsp; &quot;capabilities&quot;: [&lt;/font&gt;&lt;/div&gt;&lt;div style=&quot;font-size: 16px&quot;&gt;&lt;font face=&quot;Courier New&quot; style=&quot;font-size: 16px&quot;&gt;&amp;nbsp; &amp;nbsp; {&lt;/font&gt;&lt;/div&gt;&lt;div style=&quot;font-size: 16px&quot;&gt;&lt;font face=&quot;Courier New&quot; style=&quot;font-size: 16px&quot;&gt;&amp;nbsp; &amp;nbsp; &amp;nbsp; &quot;description&quot;: &quot;Opens the user profile&quot;,&lt;/font&gt;&lt;/div&gt;&lt;div style=&quot;font-size: 16px&quot;&gt;&lt;font face=&quot;Courier New&quot; style=&quot;font-size: 16px&quot;&gt;&amp;nbsp; &amp;nbsp; &amp;nbsp; &quot;&lt;b&gt;type&lt;/b&gt;&quot;: &quot;&lt;b&gt;toolbar-item&lt;/b&gt;&quot;,&lt;/font&gt;&lt;/div&gt;&lt;div style=&quot;font-size: 16px&quot;&gt;&lt;font face=&quot;Courier New&quot; style=&quot;font-size: 16px&quot;&gt;&amp;nbsp; &amp;nbsp; &amp;nbsp; &quot;&lt;b&gt;qualifier&lt;/b&gt;&quot;: {&lt;/font&gt;&lt;/div&gt;&lt;div style=&quot;font-size: 16px&quot;&gt;&lt;font face=&quot;Courier New&quot; style=&quot;font-size: 16px&quot;&gt;&amp;nbsp; &amp;nbsp; &amp;nbsp; &amp;nbsp; &quot;&lt;b&gt;toolbar&lt;/b&gt;&quot;: &quot;&lt;b&gt;main&lt;/b&gt;&quot;,&lt;/font&gt;&lt;/div&gt;&lt;div style=&quot;font-size: 16px&quot;&gt;&lt;font face=&quot;Courier New&quot; style=&quot;font-size: 16px&quot;&gt;&amp;nbsp; &amp;nbsp; &amp;nbsp; &amp;nbsp; &quot;&lt;b&gt;action&lt;/b&gt;&quot;: &quot;&lt;b&gt;openUserProfile&lt;/b&gt;&quot;&lt;/font&gt;&lt;/div&gt;&lt;div style=&quot;font-size: 16px&quot;&gt;&lt;font face=&quot;Courier New&quot; style=&quot;font-size: 16px&quot;&gt;&amp;nbsp; &amp;nbsp; &amp;nbsp; }&lt;/font&gt;&lt;/div&gt;&lt;div style=&quot;font-size: 16px&quot;&gt;&lt;div style=&quot;font-family: &amp;#34;courier new&amp;#34;&quot;&gt;&amp;nbsp; &amp;nbsp; &amp;nbsp; &quot;properties&quot;: {&lt;/div&gt;&lt;div style=&quot;font-family: &amp;#34;courier new&amp;#34;&quot;&gt;&lt;b&gt;&amp;nbsp; &amp;nbsp; &amp;nbsp; &amp;nbsp; &quot;label&quot;: &quot;User Account&quot;,&lt;/b&gt;&lt;/div&gt;&lt;div style=&quot;font-family: &amp;#34;courier new&amp;#34;&quot;&gt;&amp;nbsp; &amp;nbsp; &amp;nbsp; }&lt;/div&gt;&lt;/div&gt;&lt;div style=&quot;font-size: 16px&quot;&gt;&lt;font face=&quot;Courier New&quot; style=&quot;font-size: 16px&quot;&gt;&amp;nbsp; &amp;nbsp; }&lt;/font&gt;&lt;/div&gt;&lt;div style=&quot;font-size: 16px&quot;&gt;&lt;font face=&quot;Courier New&quot; style=&quot;font-size: 16px&quot;&gt;&amp;nbsp; ]&lt;/font&gt;&lt;/div&gt;&lt;div style=&quot;font-size: 16px&quot;&gt;&lt;font face=&quot;Courier New&quot; style=&quot;font-size: 16px&quot;&gt;}&lt;/font&gt;&lt;/div&gt;" style="shape=note;whiteSpace=wrap;html=1;backgroundOutline=1;darkOpacity=0.05;rounded=0;shadow=0;glass=0;comic=1;strokeColor=#d6b656;strokeWidth=2;fillColor=#fff2cc;align=left;dashed=1;dashPattern=1 1;size=11;verticalAlign=top;" parent="L7oAKXMQhD4TpimE3mad-1" vertex="1"><mxGeometry x="1600" y="280" width="460" height="390" as="geometry"/></mxCell><mxCell id="USN9Dfk1S-4-FwVX8tIG-2" value="&lt;font style=&quot;font-size: 15px&quot;&gt;contributes&lt;/font&gt;" style="endArrow=block;html=1;fontColor=#000000;strokeWidth=3;endFill=1;exitX=0.5;exitY=0;exitDx=0;exitDy=0;exitPerimeter=0;entryX=0.45;entryY=1.025;entryDx=0;entryDy=0;entryPerimeter=0;" parent="L7oAKXMQhD4TpimE3mad-1" source="dGZxXo182Zx5gDU3JFe_-0" target="f9TYaFWomR5muZDaiXRZ-78" edge="1"><mxGeometry width="50" height="50" relative="1" as="geometry"><mxPoint x="1055" y="280" as="sourcePoint"/><mxPoint x="1090" y="120" as="targetPoint"/></mxGeometry></mxCell><mxCell id="USN9Dfk1S-4-FwVX8tIG-3" value="&lt;font style=&quot;font-size: 15px&quot;&gt;contributes&lt;/font&gt;" style="endArrow=block;html=1;fontColor=#000000;strokeWidth=3;endFill=1;entryX=0.485;entryY=1.025;entryDx=0;entryDy=0;entryPerimeter=0;" parent="L7oAKXMQhD4TpimE3mad-1" source="Ox4kpdyAFtpOHoj2yFRj-0" target="f9TYaFWomR5muZDaiXRZ-79" edge="1"><mxGeometry width="50" height="50" relative="1" as="geometry"><mxPoint x="1550" y="650" as="sourcePoint"/><mxPoint x="1292" y="120" as="targetPoint"/></mxGeometry></mxCell><mxCell id="USN9Dfk1S-4-FwVX8tIG-4" value="&lt;font style=&quot;font-size: 15px&quot;&gt;contributes&lt;/font&gt;" style="endArrow=block;html=1;fontColor=#000000;strokeWidth=3;endFill=1;entryX=0.418;entryY=1.05;entryDx=0;entryDy=0;entryPerimeter=0;exitX=0.5;exitY=0;exitDx=0;exitDy=0;exitPerimeter=0;" parent="L7oAKXMQhD4TpimE3mad-1" source="77B7j-d75IAjCiOBmBS8-0" target="f9TYaFWomR5muZDaiXRZ-80" edge="1"><mxGeometry width="50" height="50" relative="1" as="geometry"><mxPoint x="1492" y="300" as="sourcePoint"/><mxPoint x="1253.0500000000002" y="111" as="targetPoint"/></mxGeometry></mxCell><mxCell id="nt-yA40vmJ-hhymK1LvL-9" value="" style="rounded=1;whiteSpace=wrap;html=1;strokeColor=#808080;strokeWidth=1;fillColor=none;gradientColor=none;fontColor=#000000;opacity=0;align=center;" parent="L7oAKXMQhD4TpimE3mad-1" vertex="1"><mxGeometry x="900" y="560" width="120" height="60" as="geometry"/></mxCell></root></mxGraphModel></diagram><diagram name="top-level-router-outlets" id="0vZUq_frpoAjWNxhGi8L"><mxGraphModel dx="2912" dy="2261" grid="1" gridSize="10" guides="1" tooltips="1" connect="1" arrows="1" fold="1" page="1" pageScale="1" pageWidth="850" pageHeight="1100" math="0" shadow="0"><root><mxCell id="DBbj_z8pxYcgHsEbKBcR-0"/><mxCell id="DBbj_z8pxYcgHsEbKBcR-1" parent="DBbj_z8pxYcgHsEbKBcR-0"/><mxCell id="hpPAncR0OlesK8-ZzwVv-9" value="" style="strokeWidth=1;shadow=0;align=center;html=1;shape=mxgraph.mockup.containers.browserWindow;rSize=0;strokeColor2=#C4C4C4;strokeColor3=#c4c4c4;mainText=,;recursiveResize=0;comic=0;horizontal=1;verticalAlign=middle;perimeterSpacing=0;noLabel=0;strokeColor=none;" parent="DBbj_z8pxYcgHsEbKBcR-1" vertex="1"><mxGeometry x="-100" y="-820" width="690" height="360" as="geometry"/></mxCell><mxCell id="hpPAncR0OlesK8-ZzwVv-10" value="" style="strokeWidth=1;shadow=0;dashed=0;align=center;html=1;shape=mxgraph.mockup.containers.anchor;fontSize=17;fontColor=#666666;align=left;" parent="hpPAncR0OlesK8-ZzwVv-9" vertex="1"><mxGeometry x="60" y="12" width="110" height="26" as="geometry"/></mxCell><mxCell id="hpPAncR0OlesK8-ZzwVv-14" value="&lt;font style=&quot;font-size: 16px&quot; color=&quot;#4c6487&quot;&gt;&lt;b&gt;Router Outlet&lt;/b&gt;&lt;br&gt;PRIMARY&lt;br&gt;&lt;/font&gt;" style="rounded=0;whiteSpace=wrap;html=1;shadow=0;comic=1;align=center;verticalAlign=middle;strokeWidth=2;glass=0;fillColor=#dae8fc;strokeColor=#6c8ebf;" parent="hpPAncR0OlesK8-ZzwVv-9" vertex="1"><mxGeometry x="140" y="120" width="390" height="230" as="geometry"/></mxCell><mxCell id="hpPAncR0OlesK8-ZzwVv-15" value="&lt;font style=&quot;font-size: 16px&quot; color=&quot;#4c6487&quot;&gt;&lt;b&gt;Router Outlet&lt;/b&gt;&lt;br&gt;ASIDE&lt;/font&gt;" style="rounded=0;whiteSpace=wrap;html=1;shadow=0;comic=1;strokeColor=#6c8ebf;align=center;verticalAlign=middle;strokeWidth=2;glass=0;fillColor=#dae8fc;horizontal=1;" parent="hpPAncR0OlesK8-ZzwVv-9" vertex="1"><mxGeometry x="540" y="120" width="140" height="230" as="geometry"/></mxCell><mxCell id="hpPAncR0OlesK8-ZzwVv-13" value="&lt;font style=&quot;font-size: 16px&quot;&gt;&lt;br&gt;&lt;/font&gt;" style="rounded=0;whiteSpace=wrap;html=1;shadow=0;comic=1;strokeColor=#CCCCCC;align=center;verticalAlign=middle;strokeWidth=2;glass=0;fillColor=#f5f5f5;fontColor=#333333;" parent="hpPAncR0OlesK8-ZzwVv-9" vertex="1"><mxGeometry x="10" y="120" width="120" height="230" as="geometry"/></mxCell><mxCell id="hpPAncR0OlesK8-ZzwVv-86" value="1" style="ellipse;whiteSpace=wrap;html=1;aspect=fixed;rounded=0;comic=0;strokeColor=none;strokeWidth=1;fillColor=#808080;fontColor=#FFFFFF;fontStyle=1" parent="hpPAncR0OlesK8-ZzwVv-9" vertex="1"><mxGeometry x="325" y="280" width="20" height="20" as="geometry"/></mxCell><mxCell id="hpPAncR0OlesK8-ZzwVv-87" value="2" style="ellipse;whiteSpace=wrap;html=1;aspect=fixed;rounded=0;comic=0;strokeColor=none;strokeWidth=1;fillColor=#808080;fontColor=#FFFFFF;fontStyle=1" parent="hpPAncR0OlesK8-ZzwVv-9" vertex="1"><mxGeometry x="600" y="280" width="20" height="20" as="geometry"/></mxCell><mxCell id="qGjzg_rmFdrAzGJK-O-o-42" value="" style="rounded=0;whiteSpace=wrap;html=1;fillColor=#E3E3E3;strokeColor=none;" parent="hpPAncR0OlesK8-ZzwVv-9" vertex="1"><mxGeometry x="22.5" y="230" width="95" height="50" as="geometry"/></mxCell><mxCell id="qGjzg_rmFdrAzGJK-O-o-27" value="" style="rounded=0;whiteSpace=wrap;html=1;fillColor=#E3E3E3;strokeColor=none;" parent="hpPAncR0OlesK8-ZzwVv-9" vertex="1"><mxGeometry x="25" y="196" width="75" height="10" as="geometry"/></mxCell><mxCell id="qGjzg_rmFdrAzGJK-O-o-26" value="" style="rounded=0;whiteSpace=wrap;html=1;fillColor=#E3E3E3;strokeColor=none;" parent="hpPAncR0OlesK8-ZzwVv-9" vertex="1"><mxGeometry x="25" y="180" width="55" height="10" as="geometry"/></mxCell><mxCell id="qGjzg_rmFdrAzGJK-O-o-25" value="" style="rounded=0;whiteSpace=wrap;html=1;fillColor=#E3E3E3;strokeColor=none;" parent="hpPAncR0OlesK8-ZzwVv-9" vertex="1"><mxGeometry x="25" y="164" width="75" height="10" as="geometry"/></mxCell><mxCell id="qGjzg_rmFdrAzGJK-O-o-0" value="" style="rounded=0;whiteSpace=wrap;html=1;fillColor=#E3E3E3;strokeColor=none;" parent="hpPAncR0OlesK8-ZzwVv-9" vertex="1"><mxGeometry x="25" y="144" width="95" height="10" as="geometry"/></mxCell><mxCell id="qGjzg_rmFdrAzGJK-O-o-51" value="" style="rounded=0;whiteSpace=wrap;html=1;fillColor=#E3E3E3;strokeColor=none;" parent="hpPAncR0OlesK8-ZzwVv-9" vertex="1"><mxGeometry x="22.5" y="300" width="95" height="10" as="geometry"/></mxCell><mxCell id="qGjzg_rmFdrAzGJK-O-o-52" value="" style="rounded=0;whiteSpace=wrap;html=1;fillColor=#E3E3E3;strokeColor=none;" parent="hpPAncR0OlesK8-ZzwVv-9" vertex="1"><mxGeometry x="22.5" y="320" width="95" height="10" as="geometry"/></mxCell></root></mxGraphModel></diagram><diagram name="nested-router-outlets" id="oUTisXjTWG3NyfIe65c8"><mxGraphModel dx="2912" dy="2261" grid="1" gridSize="10" guides="1" tooltips="1" connect="1" arrows="1" fold="1" page="1" pageScale="1" pageWidth="850" pageHeight="1100" math="0" shadow="0"><root><mxCell id="1w-okEwcvC3MmoV7veUp-0"/><mxCell id="1w-okEwcvC3MmoV7veUp-1" parent="1w-okEwcvC3MmoV7veUp-0"/><mxCell id="1w-okEwcvC3MmoV7veUp-2" value="" style="strokeWidth=1;shadow=0;align=center;html=1;shape=mxgraph.mockup.containers.browserWindow;rSize=0;strokeColor2=#C4C4C4;strokeColor3=#c4c4c4;mainText=,;recursiveResize=0;comic=0;horizontal=1;verticalAlign=middle;perimeterSpacing=0;noLabel=0;" parent="1w-okEwcvC3MmoV7veUp-1" vertex="1"><mxGeometry x="-210" y="-780" width="690" height="360" as="geometry"/></mxCell><mxCell id="1w-okEwcvC3MmoV7veUp-3" value="" style="strokeWidth=1;shadow=0;dashed=0;align=center;html=1;shape=mxgraph.mockup.containers.anchor;fontSize=17;fontColor=#666666;align=left;" parent="1w-okEwcvC3MmoV7veUp-2" vertex="1"><mxGeometry x="60" y="12" width="110" height="26" as="geometry"/></mxCell><mxCell id="1w-okEwcvC3MmoV7veUp-4" value="&lt;font style=&quot;font-size: 16px&quot; color=&quot;#4c6487&quot;&gt;&lt;b&gt;Router Outlet&lt;/b&gt;&lt;br&gt;PRIMARY&lt;br&gt;&lt;/font&gt;" style="rounded=0;whiteSpace=wrap;html=1;shadow=0;comic=1;align=center;verticalAlign=top;strokeWidth=2;glass=0;fillColor=#dae8fc;strokeColor=#6c8ebf;horizontal=1;" parent="1w-okEwcvC3MmoV7veUp-2" vertex="1"><mxGeometry x="140" y="120" width="390" height="230" as="geometry"/></mxCell><mxCell id="1w-okEwcvC3MmoV7veUp-5" value="" style="rounded=0;whiteSpace=wrap;html=1;shadow=0;comic=1;strokeColor=#CCCCCC;align=center;verticalAlign=middle;strokeWidth=2;glass=0;fillColor=#f5f5f5;horizontal=1;fontColor=#4D4D4D;" parent="1w-okEwcvC3MmoV7veUp-2" vertex="1"><mxGeometry x="540" y="120" width="140" height="230" as="geometry"/></mxCell><mxCell id="JzdJyg_GVKvBLhRkXg4W-0" value="&lt;font color=&quot;#517040&quot;&gt;&lt;span style=&quot;font-size: 16px&quot;&gt;&lt;b&gt;Router Outlet&lt;br&gt;&lt;/b&gt;&lt;/span&gt;SECONDARY&lt;/font&gt;" style="rounded=0;whiteSpace=wrap;html=1;shadow=0;comic=1;strokeColor=#82b366;align=center;verticalAlign=middle;strokeWidth=2;glass=0;fillColor=#d5e8d4;" parent="1w-okEwcvC3MmoV7veUp-2" vertex="1"><mxGeometry x="160" y="260" width="350" height="80" as="geometry"/></mxCell><mxCell id="E3BZP6hFZH28MXXrEjjb-0" value="&lt;font style=&quot;font-size: 16px&quot;&gt;&lt;br&gt;&lt;/font&gt;" style="rounded=0;whiteSpace=wrap;html=1;shadow=0;comic=1;strokeColor=#CCCCCC;align=center;verticalAlign=middle;strokeWidth=2;glass=0;fillColor=#f5f5f5;fontColor=#333333;" parent="1w-okEwcvC3MmoV7veUp-2" vertex="1"><mxGeometry x="10" y="120" width="120" height="230" as="geometry"/></mxCell></root></mxGraphModel></diagram><diagram id="mvLWDARlAMdy5rfw8gIv" name="keystroke-syntax"><mxGraphModel dx="2062" dy="1161" grid="1" gridSize="10" guides="1" tooltips="1" connect="1" arrows="1" fold="1" page="1" pageScale="1" pageWidth="850" pageHeight="1100" math="0" shadow="0"><root><mxCell id="cRM6gly2x6OC0xlkLlwA-0"/><mxCell id="cRM6gly2x6OC0xlkLlwA-1" parent="cRM6gly2x6OC0xlkLlwA-0"/><mxCell id="cRM6gly2x6OC0xlkLlwA-2" value="&lt;span style=&quot;font-family: &amp;#34;consolas&amp;#34; , &amp;#34;monaco&amp;#34; , &amp;#34;andale mono&amp;#34; , &amp;#34;ubuntu mono&amp;#34; , monospace ; text-align: left ; white-space: pre&quot;&gt;&lt;font style=&quot;font-size: 20px&quot; color=&quot;#878787&quot;&gt;keydown&lt;/font&gt;&lt;font color=&quot;#4d4d4d&quot; style=&quot;font-size: 30px&quot;&gt;.&lt;/font&gt;&lt;font style=&quot;font-size: 20px&quot; color=&quot;#878787&quot;&gt;control&lt;/font&gt;&lt;font style=&quot;font-size: 20px&quot; color=&quot;#878787&quot;&gt;.alt&lt;/font&gt;&lt;font color=&quot;#4d4d4d&quot; style=&quot;font-size: 30px&quot;&gt;.&lt;/font&gt;&lt;font style=&quot;font-size: 20px&quot; color=&quot;#878787&quot;&gt;enter&lt;/font&gt;&lt;/span&gt;" style="text;html=1;strokeColor=none;fillColor=none;align=center;verticalAlign=middle;whiteSpace=wrap;rounded=0;comic=1;" parent="cRM6gly2x6OC0xlkLlwA-1" vertex="1"><mxGeometry x="330" y="240" width="240" height="20" as="geometry"/></mxCell><mxCell id="cRM6gly2x6OC0xlkLlwA-8" value="" style="shape=curlyBracket;whiteSpace=wrap;html=1;rounded=1;comic=0;strokeColor=#4D4D4D;fillColor=none;rotation=-90;" parent="cRM6gly2x6OC0xlkLlwA-1" vertex="1"><mxGeometry x="336" y="244" width="20" height="72" as="geometry"/></mxCell><mxCell id="cRM6gly2x6OC0xlkLlwA-9" value="" style="shape=curlyBracket;whiteSpace=wrap;html=1;rounded=1;comic=0;strokeColor=#4D4D4D;fillColor=none;rotation=-90;" parent="cRM6gly2x6OC0xlkLlwA-1" vertex="1"><mxGeometry x="451.75" y="221.75" width="20" height="116.5" as="geometry"/></mxCell><mxCell id="cRM6gly2x6OC0xlkLlwA-10" value="" style="shape=curlyBracket;whiteSpace=wrap;html=1;rounded=1;comic=0;strokeColor=#4D4D4D;fillColor=none;rotation=-90;" parent="cRM6gly2x6OC0xlkLlwA-1" vertex="1"><mxGeometry x="555.75" y="254.25" width="20" height="51.5" as="geometry"/></mxCell><mxCell id="cRM6gly2x6OC0xlkLlwA-11" value="&lt;font&gt;&lt;span style=&quot;font-size: 14px&quot;&gt;event type&lt;/span&gt;&lt;br&gt;&lt;/font&gt;" style="text;html=1;strokeColor=none;fillColor=none;align=center;verticalAlign=middle;whiteSpace=wrap;rounded=0;comic=1;" parent="cRM6gly2x6OC0xlkLlwA-1" vertex="1"><mxGeometry x="311" y="290" width="70" height="20" as="geometry"/></mxCell><mxCell id="cRM6gly2x6OC0xlkLlwA-12" value="&lt;font style=&quot;font-size: 14px&quot;&gt;modifier part(s)&lt;/font&gt;" style="text;html=1;strokeColor=none;fillColor=none;align=center;verticalAlign=middle;whiteSpace=wrap;rounded=0;comic=1;" parent="cRM6gly2x6OC0xlkLlwA-1" vertex="1"><mxGeometry x="416.75" y="290" width="103.25" height="20" as="geometry"/></mxCell><mxCell id="cRM6gly2x6OC0xlkLlwA-13" value="&lt;font style=&quot;font-size: 14px&quot;&gt;key&lt;/font&gt;" style="text;html=1;strokeColor=none;fillColor=none;align=center;verticalAlign=middle;whiteSpace=wrap;rounded=0;comic=1;" parent="cRM6gly2x6OC0xlkLlwA-1" vertex="1"><mxGeometry x="522.5" y="290" width="90" height="20" as="geometry"/></mxCell></root></mxGraphModel></diagram><diagram id="0HFrWy9M3yfTmRleLQTs" name="e2e-app-1"><mxGraphModel dx="1178" dy="663" grid="1" gridSize="10" guides="1" tooltips="1" connect="1" arrows="1" fold="1" page="1" pageScale="1" pageWidth="850" pageHeight="1100" math="0" shadow="0"><root><mxCell id="zVk-3d7Nyk_E6LIbw_04-0"/><mxCell id="zVk-3d7Nyk_E6LIbw_04-1" parent="zVk-3d7Nyk_E6LIbw_04-0"/><mxCell id="bnV7LqrWd3dGQIAjK8l0-4" value="" style="rounded=0;whiteSpace=wrap;html=1;shadow=0;comic=0;strokeColor=#CCCCCC;strokeWidth=1;fontSize=12;fontColor=#333333;align=left;fillColor=#f5f5f5;" vertex="1" parent="zVk-3d7Nyk_E6LIbw_04-1"><mxGeometry x="30" y="30" width="650" height="240" as="geometry"/></mxCell><mxCell id="zVk-3d7Nyk_E6LIbw_04-6" value="" style="rounded=0;whiteSpace=wrap;html=1;shadow=0;comic=0;strokeColor=#CCCCCC;strokeWidth=1;fontSize=12;fontColor=#808080;align=left;perimeterSpacing=12;" vertex="1" parent="zVk-3d7Nyk_E6LIbw_04-1"><mxGeometry x="40" y="80" width="310" height="180" as="geometry"/></mxCell><mxCell id="zVk-3d7Nyk_E6LIbw_04-11" value="" style="rounded=0;whiteSpace=wrap;html=1;shadow=0;comic=0;strokeColor=#CCCCCC;strokeWidth=1;fontSize=12;fontColor=#808080;align=left;perimeterSpacing=12;" vertex="1" parent="zVk-3d7Nyk_E6LIbw_04-1"><mxGeometry x="360" y="80" width="310" height="180" as="geometry"/></mxCell><mxCell id="xIkGbceQHiwc_2n1j-2e-12" value="" style="group" vertex="1" connectable="0" parent="zVk-3d7Nyk_E6LIbw_04-1"><mxGeometry x="40" y="40" width="310" height="30" as="geometry"/></mxCell><mxCell id="zVk-3d7Nyk_E6LIbw_04-3" value="https://micro-frontends.org/" style="rounded=0;whiteSpace=wrap;html=1;shadow=0;comic=0;strokeColor=#CCCCCC;strokeWidth=1;fontSize=12;fontColor=#808080;align=left;perimeterSpacing=102;spacingTop=0;spacingLeft=4;" vertex="1" parent="xIkGbceQHiwc_2n1j-2e-12"><mxGeometry width="310" height="30" as="geometry"/></mxCell><mxCell id="xIkGbceQHiwc_2n1j-2e-0" value="&lt;b&gt;GO&lt;/b&gt;" style="rounded=1;whiteSpace=wrap;html=1;shadow=0;comic=0;strokeColor=#CCCCCC;strokeWidth=1;fontSize=12;fontColor=#808080;fillColor=#f5f5f5;" vertex="1" parent="xIkGbceQHiwc_2n1j-2e-12"><mxGeometry x="276" y="3" width="30" height="24" as="geometry"/></mxCell><mxCell id="pQSWaugoIfAnfQ_EoPbX-0" value="" style="triangle;whiteSpace=wrap;html=1;rounded=0;shadow=0;comic=0;strokeColor=#CCCCCC;strokeWidth=1;fillColor=#f5f5f5;fontFamily=Comic Sans MS;fontSize=12;fontColor=#333333;align=left;rotation=90;" vertex="1" parent="xIkGbceQHiwc_2n1j-2e-12"><mxGeometry x="260" y="10" width="6" height="10" as="geometry"/></mxCell><mxCell id="xIkGbceQHiwc_2n1j-2e-13" value="" style="group" vertex="1" connectable="0" parent="zVk-3d7Nyk_E6LIbw_04-1"><mxGeometry x="360" y="40" width="310" height="30" as="geometry"/></mxCell><mxCell id="xIkGbceQHiwc_2n1j-2e-14" value="Enter a URL for a microfrontend" style="rounded=0;whiteSpace=wrap;html=1;shadow=0;comic=0;strokeColor=#CCCCCC;strokeWidth=1;fontSize=12;fontColor=#808080;align=left;perimeterSpacing=102;spacingTop=0;spacingLeft=4;" vertex="1" parent="xIkGbceQHiwc_2n1j-2e-13"><mxGeometry width="310" height="30" as="geometry"/></mxCell><mxCell id="xIkGbceQHiwc_2n1j-2e-15" value="&lt;b&gt;GO&lt;/b&gt;" style="rounded=1;whiteSpace=wrap;html=1;shadow=0;comic=0;strokeColor=#CCCCCC;strokeWidth=1;fontSize=12;fontColor=#808080;fillColor=#f5f5f5;" vertex="1" parent="xIkGbceQHiwc_2n1j-2e-13"><mxGeometry x="276" y="3" width="30" height="24" as="geometry"/></mxCell><mxCell id="pQSWaugoIfAnfQ_EoPbX-1" value="" style="triangle;whiteSpace=wrap;html=1;rounded=0;shadow=0;comic=0;strokeColor=#CCCCCC;strokeWidth=1;fillColor=#f5f5f5;fontFamily=Comic Sans MS;fontSize=12;fontColor=#333333;align=left;rotation=90;" vertex="1" parent="xIkGbceQHiwc_2n1j-2e-13"><mxGeometry x="260" y="10" width="6" height="10" as="geometry"/></mxCell><mxCell id="nXUzoW5jb846cKeo4XqL-0" value="&lt;b style=&quot;color: rgb(255 , 255 , 255)&quot;&gt;&lt;font style=&quot;font-size: 16px&quot;&gt;Micro Frontends&lt;/font&gt;&lt;/b&gt;&lt;br&gt;&lt;font style=&quot;font-size: 9px&quot; color=&quot;#d4e1f5&quot;&gt;extending the microservice idea to frontend development&lt;/font&gt;" style="rounded=0;whiteSpace=wrap;html=1;shadow=0;comic=0;strokeColor=#6c8ebf;strokeWidth=1;fontSize=12;align=left;fillColor=#7EA6E0;fontFamily=Comic Sans MS;spacingLeft=8;" vertex="1" parent="zVk-3d7Nyk_E6LIbw_04-1"><mxGeometry x="41" y="81" width="308" height="49" as="geometry"/></mxCell><mxCell id="2V-iNUtgA3kcoKFEAugu-0" value="" style="rounded=0;whiteSpace=wrap;html=1;shadow=0;comic=0;strokeColor=none;strokeWidth=1;fontSize=12;fillColor=#f5f5f5;fontColor=#333333;" vertex="1" parent="zVk-3d7Nyk_E6LIbw_04-1"><mxGeometry x="50" y="140" width="110" height="10" as="geometry"/></mxCell><mxCell id="2V-iNUtgA3kcoKFEAugu-1" value="" style="rounded=0;whiteSpace=wrap;html=1;shadow=0;comic=0;strokeColor=none;strokeWidth=1;fontSize=12;fillColor=#f5f5f5;fontColor=#333333;" vertex="1" parent="zVk-3d7Nyk_E6LIbw_04-1"><mxGeometry x="50" y="160" width="250" height="10" as="geometry"/></mxCell><mxCell id="2V-iNUtgA3kcoKFEAugu-2" value="" style="rounded=0;whiteSpace=wrap;html=1;shadow=0;comic=0;strokeColor=none;strokeWidth=1;fontSize=12;fillColor=#f5f5f5;fontColor=#333333;" vertex="1" parent="zVk-3d7Nyk_E6LIbw_04-1"><mxGeometry x="50" y="180" width="250" height="10" as="geometry"/></mxCell><mxCell id="2V-iNUtgA3kcoKFEAugu-3" value="" style="rounded=0;whiteSpace=wrap;html=1;shadow=0;comic=0;strokeColor=none;strokeWidth=1;fontSize=12;fillColor=#f5f5f5;fontColor=#333333;" vertex="1" parent="zVk-3d7Nyk_E6LIbw_04-1"><mxGeometry x="50" y="200" width="250" height="10" as="geometry"/></mxCell><mxCell id="2V-iNUtgA3kcoKFEAugu-4" value="" style="rounded=0;whiteSpace=wrap;html=1;shadow=0;comic=0;strokeColor=none;strokeWidth=1;fontSize=12;fillColor=#f5f5f5;fontColor=#333333;" vertex="1" parent="zVk-3d7Nyk_E6LIbw_04-1"><mxGeometry x="50" y="220" width="110" height="10" as="geometry"/></mxCell><mxCell id="2V-iNUtgA3kcoKFEAugu-5" value="" style="rounded=0;whiteSpace=wrap;html=1;shadow=0;comic=0;strokeColor=none;strokeWidth=1;fontSize=12;fillColor=#f5f5f5;fontColor=#333333;" vertex="1" parent="zVk-3d7Nyk_E6LIbw_04-1"><mxGeometry x="50" y="240" width="250" height="10" as="geometry"/></mxCell></root></mxGraphModel></diagram><diagram id="OW_c6F6Z6wE58YcEYfJ9" name="e2e-app-microfrontend-chooser"><mxGraphModel dx="1422" dy="801" grid="1" gridSize="10" guides="1" tooltips="1" connect="1" arrows="1" fold="1" page="1" pageScale="1" pageWidth="850" pageHeight="1100" math="0" shadow="0"><root><mxCell id="IMK2iN9EoRuUaJ5C8gQw-0"/><mxCell id="IMK2iN9EoRuUaJ5C8gQw-1" parent="IMK2iN9EoRuUaJ5C8gQw-0"/><mxCell id="elUGbK4T7Tzc1_z9wAfj-0" value="" style="rounded=0;whiteSpace=wrap;html=1;shadow=1;comic=0;strokeColor=#CCCCCC;strokeWidth=1;fontSize=12;fontColor=#808080;" vertex="1" parent="IMK2iN9EoRuUaJ5C8gQw-1"><mxGeometry x="10" y="60" width="310" height="210" as="geometry"/></mxCell><mxCell id="elUGbK4T7Tzc1_z9wAfj-1" value="" style="rounded=0;whiteSpace=wrap;html=1;shadow=0;comic=0;strokeColor=none;strokeWidth=1;fontSize=12;fillColor=#f5f5f5;fontColor=#333333;" vertex="1" parent="IMK2iN9EoRuUaJ5C8gQw-1"><mxGeometry x="30" y="80" width="110" height="10" as="geometry"/></mxCell><mxCell id="elUGbK4T7Tzc1_z9wAfj-2" value="" style="rounded=0;whiteSpace=wrap;html=1;shadow=0;comic=0;strokeColor=none;strokeWidth=1;fontSize=12;fillColor=#f5f5f5;fontColor=#333333;" vertex="1" parent="IMK2iN9EoRuUaJ5C8gQw-1"><mxGeometry x="30" y="100" width="250" height="10" as="geometry"/></mxCell><mxCell id="elUGbK4T7Tzc1_z9wAfj-3" value="" style="rounded=0;whiteSpace=wrap;html=1;shadow=0;comic=0;strokeColor=none;strokeWidth=1;fontSize=12;fillColor=#f5f5f5;fontColor=#333333;" vertex="1" parent="IMK2iN9EoRuUaJ5C8gQw-1"><mxGeometry x="30" y="130" width="110" height="10" as="geometry"/></mxCell><mxCell id="elUGbK4T7Tzc1_z9wAfj-4" value="" style="rounded=0;whiteSpace=wrap;html=1;shadow=0;comic=0;strokeColor=none;strokeWidth=1;fontSize=12;fillColor=#f5f5f5;fontColor=#333333;" vertex="1" parent="IMK2iN9EoRuUaJ5C8gQw-1"><mxGeometry x="30" y="150" width="250" height="10" as="geometry"/></mxCell><mxCell id="elUGbK4T7Tzc1_z9wAfj-5" value="" style="rounded=0;whiteSpace=wrap;html=1;shadow=0;comic=0;strokeColor=none;strokeWidth=1;fontSize=12;fillColor=#f5f5f5;fontColor=#333333;" vertex="1" parent="IMK2iN9EoRuUaJ5C8gQw-1"><mxGeometry x="30" y="180" width="110" height="10" as="geometry"/></mxCell><mxCell id="elUGbK4T7Tzc1_z9wAfj-6" value="" style="rounded=0;whiteSpace=wrap;html=1;shadow=0;comic=0;strokeColor=none;strokeWidth=1;fontSize=12;fillColor=#f5f5f5;fontColor=#333333;" vertex="1" parent="IMK2iN9EoRuUaJ5C8gQw-1"><mxGeometry x="30" y="200" width="250" height="10" as="geometry"/></mxCell><mxCell id="elUGbK4T7Tzc1_z9wAfj-7" value="" style="rounded=0;whiteSpace=wrap;html=1;shadow=0;comic=0;strokeColor=none;strokeWidth=1;fontSize=12;fillColor=#f5f5f5;fontColor=#333333;" vertex="1" parent="IMK2iN9EoRuUaJ5C8gQw-1"><mxGeometry x="30" y="230" width="110" height="10" as="geometry"/></mxCell><mxCell id="elUGbK4T7Tzc1_z9wAfj-8" value="" style="rounded=0;whiteSpace=wrap;html=1;shadow=0;comic=0;strokeColor=none;strokeWidth=1;fontSize=12;fillColor=#f5f5f5;fontColor=#333333;" vertex="1" parent="IMK2iN9EoRuUaJ5C8gQw-1"><mxGeometry x="30" y="250" width="250" height="10" as="geometry"/></mxCell><mxCell id="Wox_ssXx4FSR6TYHfYtO-0" value="" style="group" vertex="1" connectable="0" parent="IMK2iN9EoRuUaJ5C8gQw-1"><mxGeometry x="10" y="30" width="310" height="30" as="geometry"/></mxCell><mxCell id="Wox_ssXx4FSR6TYHfYtO-1" value="Enter a URL for a microfrontend" style="rounded=0;whiteSpace=wrap;html=1;shadow=0;comic=0;strokeColor=#CCCCCC;strokeWidth=1;fontSize=12;fontColor=#808080;align=left;perimeterSpacing=102;spacingTop=0;spacingLeft=4;" vertex="1" parent="Wox_ssXx4FSR6TYHfYtO-0"><mxGeometry width="310" height="30" as="geometry"/></mxCell><mxCell id="Wox_ssXx4FSR6TYHfYtO-2" value="&lt;b&gt;GO&lt;/b&gt;" style="rounded=1;whiteSpace=wrap;html=1;shadow=0;comic=0;strokeColor=#CCCCCC;strokeWidth=1;fontSize=12;fontColor=#808080;fillColor=#f5f5f5;" vertex="1" parent="Wox_ssXx4FSR6TYHfYtO-0"><mxGeometry x="276" y="3" width="30" height="24" as="geometry"/></mxCell><mxCell id="egptatpnE9_SIo2Jo_uB-0" value="" style="triangle;whiteSpace=wrap;html=1;rounded=0;shadow=0;comic=0;strokeColor=#CCCCCC;strokeWidth=1;fillColor=#f5f5f5;fontFamily=Comic Sans MS;fontSize=12;fontColor=#333333;align=left;rotation=90;" vertex="1" parent="Wox_ssXx4FSR6TYHfYtO-0"><mxGeometry x="260" y="10" width="6" height="10" as="geometry"/></mxCell><mxCell id="HA0uT1dYttpWunz_p0vR-0" value="" style="endArrow=none;html=1;strokeColor=#CCCCCC;strokeWidth=1;fontFamily=Comic Sans MS;fontSize=12;fontColor=#4D4D4D;" edge="1" parent="IMK2iN9EoRuUaJ5C8gQw-1"><mxGeometry width="50" height="50" relative="1" as="geometry"><mxPoint x="20" y="120" as="sourcePoint"/><mxPoint x="305" y="120" as="targetPoint"/></mxGeometry></mxCell><mxCell id="HA0uT1dYttpWunz_p0vR-1" value="" style="rounded=0;whiteSpace=wrap;html=1;shadow=0;comic=0;strokeColor=none;strokeWidth=1;fontSize=12;fillColor=#f5f5f5;fontColor=#333333;" vertex="1" parent="IMK2iN9EoRuUaJ5C8gQw-1"><mxGeometry x="30" y="230" width="110" height="10" as="geometry"/></mxCell><mxCell id="HA0uT1dYttpWunz_p0vR-2" value="" style="rounded=0;whiteSpace=wrap;html=1;shadow=0;comic=0;strokeColor=none;strokeWidth=1;fontSize=12;fillColor=#f5f5f5;fontColor=#333333;" vertex="1" parent="IMK2iN9EoRuUaJ5C8gQw-1"><mxGeometry x="30" y="200" width="250" height="10" as="geometry"/></mxCell><mxCell id="HA0uT1dYttpWunz_p0vR-4" value="" style="endArrow=none;html=1;strokeColor=#CCCCCC;strokeWidth=1;fontFamily=Comic Sans MS;fontSize=12;fontColor=#4D4D4D;" edge="1" parent="IMK2iN9EoRuUaJ5C8gQw-1"><mxGeometry width="50" height="50" relative="1" as="geometry"><mxPoint x="22.5" y="170" as="sourcePoint"/><mxPoint x="307.5" y="170" as="targetPoint"/></mxGeometry></mxCell><mxCell id="HA0uT1dYttpWunz_p0vR-5" value="" style="endArrow=none;html=1;strokeColor=#CCCCCC;strokeWidth=1;fontFamily=Comic Sans MS;fontSize=12;fontColor=#4D4D4D;" edge="1" parent="IMK2iN9EoRuUaJ5C8gQw-1"><mxGeometry width="50" height="50" relative="1" as="geometry"><mxPoint x="22.5" y="220" as="sourcePoint"/><mxPoint x="307.5" y="220" as="targetPoint"/></mxGeometry></mxCell></root></mxGraphModel></diagram><diagram id="SA6uckU4NP_JpJgco_C0" name="e2e-app_pub-sub-example"><mxGraphModel dx="1084" dy="964" grid="1" gridSize="10" guides="1" tooltips="1" connect="1" arrows="1" fold="1" page="1" pageScale="1" pageWidth="850" pageHeight="1100" math="0" shadow="0"><root><mxCell id="YRg9ftv3Dq7NGGBLeTHH-0"/><mxCell id="YRg9ftv3Dq7NGGBLeTHH-1" parent="YRg9ftv3Dq7NGGBLeTHH-0"/><mxCell id="vRcmqM85p50qoYWqx7EH-0" value="" style="rounded=0;whiteSpace=wrap;html=1;shadow=0;comic=0;strokeColor=#CCCCCC;strokeWidth=1;fontSize=12;fontColor=#333333;align=left;fillColor=#f5f5f5;" parent="YRg9ftv3Dq7NGGBLeTHH-1" vertex="1"><mxGeometry x="30" y="40" width="650" height="340" as="geometry"/></mxCell><mxCell id="-TbjiJnTNTPHp8LY5DvG-0" value="" style="rounded=0;whiteSpace=wrap;html=1;shadow=0;comic=0;strokeColor=#CCCCCC;strokeWidth=1;fontSize=12;fontColor=#808080;align=left;perimeterSpacing=12;" parent="YRg9ftv3Dq7NGGBLeTHH-1" vertex="1"><mxGeometry x="40" y="90" width="310" height="280" as="geometry"/></mxCell><mxCell id="-TbjiJnTNTPHp8LY5DvG-1" value="" style="rounded=0;whiteSpace=wrap;html=1;shadow=0;comic=0;strokeColor=#CCCCCC;strokeWidth=1;fontSize=12;fontColor=#808080;align=left;perimeterSpacing=12;" parent="YRg9ftv3Dq7NGGBLeTHH-1" vertex="1"><mxGeometry x="360" y="90" width="310" height="280" as="geometry"/></mxCell><mxCell id="sL73TdnsrrKLjpCOkA5E-5" value="Topic:" style="text;html=1;strokeColor=none;fillColor=none;align=left;verticalAlign=middle;whiteSpace=wrap;rounded=0;shadow=1;comic=0;fontSize=12;fontColor=#4D4D4D;" parent="YRg9ftv3Dq7NGGBLeTHH-1" vertex="1"><mxGeometry x="370" y="180" width="40" height="20" as="geometry"/></mxCell><mxCell id="sL73TdnsrrKLjpCOkA5E-6" value="myhome/livingroom/temperature" style="rounded=0;whiteSpace=wrap;html=1;shadow=0;comic=0;strokeColor=#CCCCCC;strokeWidth=1;fontSize=12;fontColor=#4D4D4D;align=left;spacingLeft=3;" parent="YRg9ftv3Dq7NGGBLeTHH-1" vertex="1"><mxGeometry x="440" y="177" width="220" height="26" as="geometry"/></mxCell><mxCell id="sL73TdnsrrKLjpCOkA5E-7" value="Message:" style="text;html=1;strokeColor=none;fillColor=none;align=left;verticalAlign=middle;whiteSpace=wrap;rounded=0;shadow=1;comic=0;fontSize=12;fontColor=#4D4D4D;" parent="YRg9ftv3Dq7NGGBLeTHH-1" vertex="1"><mxGeometry x="370" y="213" width="40" height="20" as="geometry"/></mxCell><mxCell id="sL73TdnsrrKLjpCOkA5E-8" value="25°C" style="rounded=0;whiteSpace=wrap;html=1;shadow=0;comic=0;strokeColor=#CCCCCC;strokeWidth=1;fontSize=12;fontColor=#4D4D4D;align=left;verticalAlign=top;spacingLeft=3;" parent="YRg9ftv3Dq7NGGBLeTHH-1" vertex="1"><mxGeometry x="440" y="213" width="220" height="113" as="geometry"/></mxCell><mxCell id="sL73TdnsrrKLjpCOkA5E-11" value="Flavor:" style="text;html=1;strokeColor=none;fillColor=none;align=left;verticalAlign=middle;whiteSpace=wrap;rounded=0;shadow=1;comic=0;fontSize=12;fontColor=#4D4D4D;" parent="YRg9ftv3Dq7NGGBLeTHH-1" vertex="1"><mxGeometry x="50" y="146" width="40" height="20" as="geometry"/></mxCell><mxCell id="sL73TdnsrrKLjpCOkA5E-12" value="Subscribe" style="rounded=1;whiteSpace=wrap;html=1;shadow=0;comic=0;strokeColor=#CCCCCC;strokeWidth=1;fontSize=12;fontColor=#808080;fillColor=#f5f5f5;" parent="YRg9ftv3Dq7NGGBLeTHH-1" vertex="1"><mxGeometry x="270" y="213" width="70" height="26" as="geometry"/></mxCell><mxCell id="4VHrZ_KCxNSoju8rC8eh-0" value="Topic" style="rounded=0;whiteSpace=wrap;html=1;shadow=0;comic=0;strokeColor=#CCCCCC;strokeWidth=1;fontSize=12;fontColor=#4D4D4D;align=left;spacingLeft=3;" parent="YRg9ftv3Dq7NGGBLeTHH-1" vertex="1"><mxGeometry x="120" y="140" width="220" height="26" as="geometry"/></mxCell><mxCell id="4VHrZ_KCxNSoju8rC8eh-1" value="Publish" style="rounded=1;whiteSpace=wrap;html=1;shadow=0;comic=0;strokeColor=#CCCCCC;strokeWidth=1;fontSize=12;fontColor=#808080;fillColor=#f5f5f5;" parent="YRg9ftv3Dq7NGGBLeTHH-1" vertex="1"><mxGeometry x="590" y="333" width="70" height="26" as="geometry"/></mxCell><mxCell id="xVWGxrGDXYQThYEx3aNr-0" value="" style="group" parent="YRg9ftv3Dq7NGGBLeTHH-1" vertex="1" connectable="0"><mxGeometry x="360" y="50" width="310" height="30" as="geometry"/></mxCell><mxCell id="xVWGxrGDXYQThYEx3aNr-1" value="&lt;font color=&quot;#4d4d4d&quot;&gt;../publish-message&lt;/font&gt;" style="rounded=0;whiteSpace=wrap;html=1;shadow=0;comic=0;strokeColor=#CCCCCC;strokeWidth=1;fontSize=12;fontColor=#808080;align=left;perimeterSpacing=102;spacingTop=0;spacingLeft=4;" parent="xVWGxrGDXYQThYEx3aNr-0" vertex="1"><mxGeometry width="310" height="30" as="geometry"/></mxCell><mxCell id="xVWGxrGDXYQThYEx3aNr-2" value="&lt;b&gt;GO&lt;/b&gt;" style="rounded=1;whiteSpace=wrap;html=1;shadow=0;comic=0;strokeColor=#CCCCCC;strokeWidth=1;fontSize=12;fontColor=#808080;fillColor=#f5f5f5;" parent="xVWGxrGDXYQThYEx3aNr-0" vertex="1"><mxGeometry x="276" y="3" width="30" height="24" as="geometry"/></mxCell><mxCell id="9Vss3D8PykC_yH4TSnyh-8" value="" style="triangle;whiteSpace=wrap;html=1;rounded=0;shadow=0;comic=0;strokeColor=#CCCCCC;strokeWidth=1;fillColor=#f5f5f5;fontFamily=Comic Sans MS;fontSize=12;fontColor=#333333;align=left;rotation=90;" parent="xVWGxrGDXYQThYEx3aNr-0" vertex="1"><mxGeometry x="260" y="10" width="6" height="10" as="geometry"/></mxCell><mxCell id="xVWGxrGDXYQThYEx3aNr-6" value="" style="group" parent="YRg9ftv3Dq7NGGBLeTHH-1" vertex="1" connectable="0"><mxGeometry x="40" y="50" width="310" height="30" as="geometry"/></mxCell><mxCell id="xVWGxrGDXYQThYEx3aNr-7" value="&lt;font color=&quot;#4d4d4d&quot;&gt;../receive-message&lt;/font&gt;" style="rounded=0;whiteSpace=wrap;html=1;shadow=0;comic=0;strokeColor=#CCCCCC;strokeWidth=1;fontSize=12;fontColor=#808080;align=left;perimeterSpacing=102;spacingTop=0;spacingLeft=4;" parent="xVWGxrGDXYQThYEx3aNr-6" vertex="1"><mxGeometry width="310" height="30" as="geometry"/></mxCell><mxCell id="xVWGxrGDXYQThYEx3aNr-8" value="&lt;b&gt;GO&lt;/b&gt;" style="rounded=1;whiteSpace=wrap;html=1;shadow=0;comic=0;strokeColor=#CCCCCC;strokeWidth=1;fontSize=12;fontColor=#808080;fillColor=#f5f5f5;" parent="xVWGxrGDXYQThYEx3aNr-6" vertex="1"><mxGeometry x="276" y="3" width="30" height="24" as="geometry"/></mxCell><mxCell id="9Vss3D8PykC_yH4TSnyh-7" value="" style="triangle;whiteSpace=wrap;html=1;rounded=0;shadow=0;comic=0;strokeColor=#CCCCCC;strokeWidth=1;fillColor=#f5f5f5;fontFamily=Comic Sans MS;fontSize=12;fontColor=#333333;align=left;rotation=90;" parent="xVWGxrGDXYQThYEx3aNr-6" vertex="1"><mxGeometry x="260" y="10" width="6" height="10" as="geometry"/></mxCell><mxCell id="A2u56wLh5R1YBmcT-PAi-0" value="" style="rounded=0;whiteSpace=wrap;html=1;shadow=0;comic=0;strokeColor=#CCCCCC;strokeWidth=1;fontSize=12;fontColor=#4D4D4D;" parent="YRg9ftv3Dq7NGGBLeTHH-1" vertex="1"><mxGeometry x="50" y="263" width="290" height="90" as="geometry"/></mxCell><mxCell id="jGEMMM7VnFoJKYpA6r0A-0" value="" style="rounded=0;whiteSpace=wrap;html=1;shadow=0;comic=0;strokeColor=none;strokeWidth=1;fontSize=12;fillColor=#f5f5f5;fontColor=#333333;" parent="YRg9ftv3Dq7NGGBLeTHH-1" vertex="1"><mxGeometry x="60" y="283" width="110" height="10" as="geometry"/></mxCell><mxCell id="jGEMMM7VnFoJKYpA6r0A-1" value="" style="rounded=0;whiteSpace=wrap;html=1;shadow=0;comic=0;strokeColor=none;strokeWidth=1;fontSize=12;fillColor=#f5f5f5;fontColor=#333333;" parent="YRg9ftv3Dq7NGGBLeTHH-1" vertex="1"><mxGeometry x="60" y="303" width="250" height="10" as="geometry"/></mxCell><mxCell id="jGEMMM7VnFoJKYpA6r0A-2" value="" style="rounded=0;whiteSpace=wrap;html=1;shadow=0;comic=0;strokeColor=none;strokeWidth=1;fontSize=12;fillColor=#f5f5f5;fontColor=#333333;" parent="YRg9ftv3Dq7NGGBLeTHH-1" vertex="1"><mxGeometry x="60" y="323" width="250" height="10" as="geometry"/></mxCell><mxCell id="9Vss3D8PykC_yH4TSnyh-1" value="myhome/:room/temperature" style="rounded=0;whiteSpace=wrap;html=1;shadow=0;comic=0;strokeColor=#CCCCCC;strokeWidth=1;fontSize=12;fontColor=#4D4D4D;align=left;spacingLeft=3;" parent="YRg9ftv3Dq7NGGBLeTHH-1" vertex="1"><mxGeometry x="120" y="180" width="220" height="26" as="geometry"/></mxCell><mxCell id="9Vss3D8PykC_yH4TSnyh-3" value="Topic:" style="text;html=1;strokeColor=none;fillColor=none;align=left;verticalAlign=middle;whiteSpace=wrap;rounded=0;shadow=1;comic=0;fontSize=12;fontColor=#4D4D4D;" parent="YRg9ftv3Dq7NGGBLeTHH-1" vertex="1"><mxGeometry x="50" y="183" width="40" height="20" as="geometry"/></mxCell><mxCell id="9Vss3D8PykC_yH4TSnyh-5" value="" style="triangle;whiteSpace=wrap;html=1;rounded=0;shadow=0;comic=0;strokeColor=#CCCCCC;strokeWidth=1;fillColor=#f5f5f5;fontFamily=Comic Sans MS;fontSize=12;fontColor=#333333;align=left;rotation=90;" parent="YRg9ftv3Dq7NGGBLeTHH-1" vertex="1"><mxGeometry x="320" y="148" width="6" height="10" as="geometry"/></mxCell><mxCell id="9Vss3D8PykC_yH4TSnyh-9" value="Topic" style="rounded=0;whiteSpace=wrap;html=1;shadow=0;comic=0;strokeColor=#CCCCCC;strokeWidth=1;fontSize=12;fontColor=#4D4D4D;align=left;spacingLeft=3;" parent="YRg9ftv3Dq7NGGBLeTHH-1" vertex="1"><mxGeometry x="440" y="140" width="220" height="26" as="geometry"/></mxCell><mxCell id="9Vss3D8PykC_yH4TSnyh-10" value="Flavor:" style="text;html=1;strokeColor=none;fillColor=none;align=left;verticalAlign=middle;whiteSpace=wrap;rounded=0;shadow=1;comic=0;fontSize=12;fontColor=#4D4D4D;" parent="YRg9ftv3Dq7NGGBLeTHH-1" vertex="1"><mxGeometry x="370" y="146" width="40" height="20" as="geometry"/></mxCell><mxCell id="9Vss3D8PykC_yH4TSnyh-12" value="" style="triangle;whiteSpace=wrap;html=1;rounded=0;shadow=0;comic=0;strokeColor=#CCCCCC;strokeWidth=1;fillColor=#f5f5f5;fontFamily=Comic Sans MS;fontSize=12;fontColor=#333333;align=left;rotation=90;" parent="YRg9ftv3Dq7NGGBLeTHH-1" vertex="1"><mxGeometry x="640" y="148" width="6" height="10" as="geometry"/></mxCell><mxCell id="D1aakNC4FiJpZjn2Ti93-0" value="&lt;h1 style=&quot;font-size: 15px&quot;&gt;&lt;font style=&quot;font-size: 15px&quot;&gt;Message Receiver Microfrontend&lt;/font&gt;&lt;/h1&gt;" style="text;html=1;strokeColor=none;fillColor=none;spacing=5;spacingTop=-20;whiteSpace=wrap;overflow=hidden;rounded=0;shadow=0;comic=0;fontFamily=Helvetica;fontSize=15;fontColor=#4D4D4D;align=left;fontStyle=0" parent="YRg9ftv3Dq7NGGBLeTHH-1" vertex="1"><mxGeometry x="49" y="97" width="263" height="20" as="geometry"/></mxCell><mxCell id="D1aakNC4FiJpZjn2Ti93-1" value="&lt;h1 style=&quot;font-size: 15px&quot;&gt;&lt;font style=&quot;font-size: 15px&quot;&gt;Message Publisher Microfrontend&lt;/font&gt;&lt;/h1&gt;" style="text;html=1;strokeColor=none;fillColor=none;spacing=5;spacingTop=-20;whiteSpace=wrap;overflow=hidden;rounded=0;shadow=0;comic=0;fontFamily=Helvetica;fontSize=15;fontColor=#4D4D4D;align=left;fontStyle=0" parent="YRg9ftv3Dq7NGGBLeTHH-1" vertex="1"><mxGeometry x="368" y="97" width="260" height="20" as="geometry"/></mxCell><mxCell id="-TbjiJnTNTPHp8LY5DvG-2" value="" style="rounded=0;whiteSpace=wrap;html=1;shadow=0;comic=0;strokeColor=none;strokeWidth=1;fontSize=12;fillColor=#f5f5f5;fontColor=#333333;" parent="YRg9ftv3Dq7NGGBLeTHH-1" vertex="1"><mxGeometry x="60" y="341" width="110" height="10" as="geometry"/></mxCell></root></mxGraphModel></diagram><diagram name="e2e-app_router-outlet-example" id="yoEfl-T551qL48kES0pD"><mxGraphModel dx="1002" dy="462" grid="1" gridSize="10" guides="1" tooltips="1" connect="1" arrows="1" fold="1" page="1" pageScale="1" pageWidth="850" pageHeight="1100" math="0" shadow="0"><root><mxCell id="WZ1lQfI4Anmczv22fzld-0"/><mxCell id="WZ1lQfI4Anmczv22fzld-1" parent="WZ1lQfI4Anmczv22fzld-0"/><mxCell id="WZ1lQfI4Anmczv22fzld-2" value="" style="rounded=0;whiteSpace=wrap;html=1;shadow=0;comic=0;strokeColor=#CCCCCC;strokeWidth=1;fontSize=12;fontColor=#333333;align=left;fillColor=#f5f5f5;" parent="WZ1lQfI4Anmczv22fzld-1" vertex="1"><mxGeometry x="30" y="30" width="650" height="340" as="geometry"/></mxCell><mxCell id="WZ1lQfI4Anmczv22fzld-3" value="" style="rounded=0;whiteSpace=wrap;html=1;shadow=0;comic=0;strokeColor=#CCCCCC;strokeWidth=1;fontSize=12;fontColor=#808080;align=left;perimeterSpacing=12;" parent="WZ1lQfI4Anmczv22fzld-1" vertex="1"><mxGeometry x="40" y="80" width="310" height="280" as="geometry"/></mxCell><mxCell id="WZ1lQfI4Anmczv22fzld-4" value="" style="rounded=0;whiteSpace=wrap;html=1;shadow=0;comic=0;strokeColor=#CCCCCC;strokeWidth=1;fontSize=12;fontColor=#808080;align=left;perimeterSpacing=12;" parent="WZ1lQfI4Anmczv22fzld-1" vertex="1"><mxGeometry x="360" y="80" width="310" height="280" as="geometry"/></mxCell><mxCell id="WZ1lQfI4Anmczv22fzld-9" value="Outlet:" style="text;html=1;strokeColor=none;fillColor=none;align=left;verticalAlign=middle;whiteSpace=wrap;rounded=0;shadow=1;comic=0;fontSize=12;fontColor=#4D4D4D;" parent="WZ1lQfI4Anmczv22fzld-1" vertex="1"><mxGeometry x="370" y="136" width="40" height="20" as="geometry"/></mxCell><mxCell id="WZ1lQfI4Anmczv22fzld-10" value="Navigate" style="rounded=1;whiteSpace=wrap;html=1;shadow=0;comic=0;strokeColor=#CCCCCC;strokeWidth=1;fontSize=12;fontColor=#808080;fillColor=#f5f5f5;" parent="WZ1lQfI4Anmczv22fzld-1" vertex="1"><mxGeometry x="590" y="204" width="70" height="26" as="geometry"/></mxCell><mxCell id="WZ1lQfI4Anmczv22fzld-11" value="test" style="rounded=0;whiteSpace=wrap;html=1;shadow=0;comic=0;strokeColor=#CCCCCC;strokeWidth=1;fontSize=12;fontColor=#4D4D4D;align=left;spacingLeft=3;" parent="WZ1lQfI4Anmczv22fzld-1" vertex="1"><mxGeometry x="440" y="130" width="220" height="26" as="geometry"/></mxCell><mxCell id="WZ1lQfI4Anmczv22fzld-12" value="Apply" style="rounded=1;whiteSpace=wrap;html=1;shadow=0;comic=0;strokeColor=#CCCCCC;strokeWidth=1;fontSize=12;fontColor=#808080;fillColor=#f5f5f5;" parent="WZ1lQfI4Anmczv22fzld-1" vertex="1"><mxGeometry x="290" y="130" width="50" height="26" as="geometry"/></mxCell><mxCell id="WZ1lQfI4Anmczv22fzld-13" value="" style="group" parent="WZ1lQfI4Anmczv22fzld-1" vertex="1" connectable="0"><mxGeometry x="40" y="40" width="310" height="30" as="geometry"/></mxCell><mxCell id="WZ1lQfI4Anmczv22fzld-14" value="&lt;font color=&quot;#4d4d4d&quot;&gt;../router-outlet&lt;/font&gt;" style="rounded=0;whiteSpace=wrap;html=1;shadow=0;comic=0;strokeColor=#CCCCCC;strokeWidth=1;fontSize=12;fontColor=#808080;align=left;perimeterSpacing=102;spacingTop=0;spacingLeft=4;" parent="WZ1lQfI4Anmczv22fzld-13" vertex="1"><mxGeometry width="310" height="30" as="geometry"/></mxCell><mxCell id="WZ1lQfI4Anmczv22fzld-15" value="&lt;b&gt;GO&lt;/b&gt;" style="rounded=1;whiteSpace=wrap;html=1;shadow=0;comic=0;strokeColor=#CCCCCC;strokeWidth=1;fontSize=12;fontColor=#808080;fillColor=#f5f5f5;" parent="WZ1lQfI4Anmczv22fzld-13" vertex="1"><mxGeometry x="276" y="3" width="30" height="24" as="geometry"/></mxCell><mxCell id="WZ1lQfI4Anmczv22fzld-16" value="" style="triangle;whiteSpace=wrap;html=1;rounded=0;shadow=0;comic=0;strokeColor=#CCCCCC;strokeWidth=1;fillColor=#f5f5f5;fontFamily=Comic Sans MS;fontSize=12;fontColor=#333333;align=left;rotation=90;" parent="WZ1lQfI4Anmczv22fzld-13" vertex="1"><mxGeometry x="260" y="10" width="6" height="10" as="geometry"/></mxCell><mxCell id="WZ1lQfI4Anmczv22fzld-17" value="" style="group" parent="WZ1lQfI4Anmczv22fzld-1" vertex="1" connectable="0"><mxGeometry x="360" y="40" width="310" height="30" as="geometry"/></mxCell><mxCell id="WZ1lQfI4Anmczv22fzld-18" value="&lt;font color=&quot;#4d4d4d&quot;&gt;../outlet-router&lt;/font&gt;" style="rounded=0;whiteSpace=wrap;html=1;shadow=0;comic=0;strokeColor=#CCCCCC;strokeWidth=1;fontSize=12;fontColor=#808080;align=left;perimeterSpacing=102;spacingTop=0;spacingLeft=4;" parent="WZ1lQfI4Anmczv22fzld-17" vertex="1"><mxGeometry width="310" height="30" as="geometry"/></mxCell><mxCell id="WZ1lQfI4Anmczv22fzld-19" value="&lt;b&gt;GO&lt;/b&gt;" style="rounded=1;whiteSpace=wrap;html=1;shadow=0;comic=0;strokeColor=#CCCCCC;strokeWidth=1;fontSize=12;fontColor=#808080;fillColor=#f5f5f5;" parent="WZ1lQfI4Anmczv22fzld-17" vertex="1"><mxGeometry x="276" y="3" width="30" height="24" as="geometry"/></mxCell><mxCell id="WZ1lQfI4Anmczv22fzld-20" value="" style="triangle;whiteSpace=wrap;html=1;rounded=0;shadow=0;comic=0;strokeColor=#CCCCCC;strokeWidth=1;fillColor=#f5f5f5;fontFamily=Comic Sans MS;fontSize=12;fontColor=#333333;align=left;rotation=90;" parent="WZ1lQfI4Anmczv22fzld-17" vertex="1"><mxGeometry x="260" y="10" width="6" height="10" as="geometry"/></mxCell><mxCell id="WZ1lQfI4Anmczv22fzld-25" value="&lt;span style=&quot;color: rgb(128 , 128 , 128)&quot;&gt;https://micro-frontends.org&lt;/span&gt;" style="rounded=0;whiteSpace=wrap;html=1;shadow=0;comic=0;strokeColor=#CCCCCC;strokeWidth=1;fontSize=12;fontColor=#4D4D4D;align=left;spacingLeft=3;" parent="WZ1lQfI4Anmczv22fzld-1" vertex="1"><mxGeometry x="440" y="170" width="220" height="26" as="geometry"/></mxCell><mxCell id="WZ1lQfI4Anmczv22fzld-26" value="URL:" style="text;html=1;strokeColor=none;fillColor=none;align=left;verticalAlign=middle;whiteSpace=wrap;rounded=0;shadow=1;comic=0;fontSize=12;fontColor=#4D4D4D;" parent="WZ1lQfI4Anmczv22fzld-1" vertex="1"><mxGeometry x="370" y="173" width="40" height="20" as="geometry"/></mxCell><mxCell id="WZ1lQfI4Anmczv22fzld-28" value="test" style="rounded=0;whiteSpace=wrap;html=1;shadow=0;comic=0;strokeColor=#CCCCCC;strokeWidth=1;fontSize=12;fontColor=#4D4D4D;align=left;spacingLeft=3;" parent="WZ1lQfI4Anmczv22fzld-1" vertex="1"><mxGeometry x="120" y="130" width="165" height="26" as="geometry"/></mxCell><mxCell id="WZ1lQfI4Anmczv22fzld-29" value="Outlet:" style="text;html=1;strokeColor=none;fillColor=none;align=left;verticalAlign=middle;whiteSpace=wrap;rounded=0;shadow=1;comic=0;fontSize=12;fontColor=#4D4D4D;" parent="WZ1lQfI4Anmczv22fzld-1" vertex="1"><mxGeometry x="50" y="136" width="40" height="20" as="geometry"/></mxCell><mxCell id="PHxDLWiANuN9IoyaKmEM-0" value="" style="rounded=0;whiteSpace=wrap;html=1;shadow=0;comic=0;strokeColor=#CCCCCC;strokeWidth=1;fontSize=12;fontColor=#808080;align=left;perimeterSpacing=12;" parent="WZ1lQfI4Anmczv22fzld-1" vertex="1"><mxGeometry x="50" y="170" width="290" height="180" as="geometry"/></mxCell><mxCell id="PHxDLWiANuN9IoyaKmEM-1" value="&lt;b style=&quot;color: rgb(255 , 255 , 255)&quot;&gt;&lt;font style=&quot;font-size: 16px&quot;&gt;Micro Frontends&lt;/font&gt;&lt;/b&gt;&lt;br&gt;&lt;font style=&quot;font-size: 9px&quot; color=&quot;#d4e1f5&quot;&gt;extending the microservice idea to frontend development&lt;/font&gt;" style="rounded=0;whiteSpace=wrap;html=1;shadow=0;comic=0;strokeColor=#6c8ebf;strokeWidth=1;fontSize=12;align=left;fillColor=#7EA6E0;fontFamily=Comic Sans MS;spacingLeft=8;" parent="WZ1lQfI4Anmczv22fzld-1" vertex="1"><mxGeometry x="51" y="171" width="288" height="49" as="geometry"/></mxCell><mxCell id="PHxDLWiANuN9IoyaKmEM-2" value="" style="rounded=0;whiteSpace=wrap;html=1;shadow=0;comic=0;strokeColor=none;strokeWidth=1;fontSize=12;fillColor=#f5f5f5;fontColor=#333333;" parent="WZ1lQfI4Anmczv22fzld-1" vertex="1"><mxGeometry x="60" y="230" width="110" height="10" as="geometry"/></mxCell><mxCell id="PHxDLWiANuN9IoyaKmEM-3" value="" style="rounded=0;whiteSpace=wrap;html=1;shadow=0;comic=0;strokeColor=none;strokeWidth=1;fontSize=12;fillColor=#f5f5f5;fontColor=#333333;" parent="WZ1lQfI4Anmczv22fzld-1" vertex="1"><mxGeometry x="60" y="250" width="250" height="10" as="geometry"/></mxCell><mxCell id="PHxDLWiANuN9IoyaKmEM-4" value="" style="rounded=0;whiteSpace=wrap;html=1;shadow=0;comic=0;strokeColor=none;strokeWidth=1;fontSize=12;fillColor=#f5f5f5;fontColor=#333333;" parent="WZ1lQfI4Anmczv22fzld-1" vertex="1"><mxGeometry x="60" y="270" width="250" height="10" as="geometry"/></mxCell><mxCell id="PHxDLWiANuN9IoyaKmEM-5" value="" style="rounded=0;whiteSpace=wrap;html=1;shadow=0;comic=0;strokeColor=none;strokeWidth=1;fontSize=12;fillColor=#f5f5f5;fontColor=#333333;" parent="WZ1lQfI4Anmczv22fzld-1" vertex="1"><mxGeometry x="60" y="290" width="250" height="10" as="geometry"/></mxCell><mxCell id="PHxDLWiANuN9IoyaKmEM-6" value="" style="rounded=0;whiteSpace=wrap;html=1;shadow=0;comic=0;strokeColor=none;strokeWidth=1;fontSize=12;fillColor=#f5f5f5;fontColor=#333333;" parent="WZ1lQfI4Anmczv22fzld-1" vertex="1"><mxGeometry x="60" y="310" width="110" height="10" as="geometry"/></mxCell><mxCell id="PHxDLWiANuN9IoyaKmEM-7" value="" style="rounded=0;whiteSpace=wrap;html=1;shadow=0;comic=0;strokeColor=none;strokeWidth=1;fontSize=12;fillColor=#f5f5f5;fontColor=#333333;" parent="WZ1lQfI4Anmczv22fzld-1" vertex="1"><mxGeometry x="60" y="330" width="250" height="10" as="geometry"/></mxCell><mxCell id="PHxDLWiANuN9IoyaKmEM-9" value="&lt;h1 style=&quot;font-size: 15px&quot;&gt;&lt;font style=&quot;font-size: 15px&quot;&gt;Router-Outlet Microfrontend&lt;/font&gt;&lt;/h1&gt;" style="text;html=1;strokeColor=none;fillColor=none;spacing=5;spacingTop=-20;whiteSpace=wrap;overflow=hidden;rounded=0;shadow=0;comic=0;fontFamily=Helvetica;fontSize=15;fontColor=#4D4D4D;align=left;fontStyle=0" parent="WZ1lQfI4Anmczv22fzld-1" vertex="1"><mxGeometry x="47" y="87" width="263" height="20" as="geometry"/></mxCell><mxCell id="PHxDLWiANuN9IoyaKmEM-11" value="&lt;h1 style=&quot;font-size: 15px&quot;&gt;&lt;font style=&quot;font-size: 15px&quot;&gt;Router Microfrontend&lt;/font&gt;&lt;/h1&gt;" style="text;html=1;strokeColor=none;fillColor=none;spacing=5;spacingTop=-21;whiteSpace=wrap;overflow=hidden;rounded=0;shadow=0;comic=0;fontFamily=Helvetica;fontSize=15;fontColor=#4D4D4D;align=left;fontStyle=0" parent="WZ1lQfI4Anmczv22fzld-1" vertex="1"><mxGeometry x="366" y="87" width="264" height="20" as="geometry"/></mxCell></root></mxGraphModel></diagram><diagram name="e2e-app_browser-outlets-example" id="BB15U_Uwu41n-DlQa_4W"><mxGraphModel dx="1852" dy="462" grid="1" gridSize="10" guides="1" tooltips="1" connect="1" arrows="1" fold="1" page="1" pageScale="1" pageWidth="850" pageHeight="1100" math="0" shadow="0"><root><mxCell id="VVkJZsK2DZt1Zc6edH6g-0"/><mxCell id="VVkJZsK2DZt1Zc6edH6g-1" parent="VVkJZsK2DZt1Zc6edH6g-0"/><mxCell id="xOvrLTHYhZtEACcFBnxs-38" value="" style="strokeWidth=1;shadow=0;dashed=0;align=center;html=1;shape=mxgraph.mockup.containers.anchor;rSize=0;fontSize=17;fontColor=#666666;align=left;" parent="VVkJZsK2DZt1Zc6edH6g-1" vertex="1"><mxGeometry x="-180" y="130" width="250" height="26" as="geometry"/></mxCell><mxCell id="EfciY3o9bHrXIrIWPUq2-1" value="" style="group" vertex="1" connectable="0" parent="VVkJZsK2DZt1Zc6edH6g-1"><mxGeometry x="-0.5" y="100" width="670.5" height="360" as="geometry"/></mxCell><mxCell id="r3bnBRtcG9dL7oqV6xBF-0" value="" style="strokeWidth=1;shadow=0;align=center;html=1;shape=mxgraph.mockup.containers.browserWindow;rSize=0;strokeColor2=#C4C4C4;strokeColor3=#c4c4c4;mainText=,;recursiveResize=0;comic=0;horizontal=1;verticalAlign=middle;perimeterSpacing=0;noLabel=0;strokeColor=#CCCCCC;container=0;" parent="EfciY3o9bHrXIrIWPUq2-1" vertex="1"><mxGeometry width="670.5" height="360" as="geometry"/></mxCell><mxCell id="r3bnBRtcG9dL7oqV6xBF-1" value="" style="strokeWidth=1;shadow=0;dashed=0;align=center;html=1;shape=mxgraph.mockup.containers.anchor;fontSize=17;fontColor=#666666;align=left;" parent="EfciY3o9bHrXIrIWPUq2-1" vertex="1"><mxGeometry x="60" y="12" width="110" height="26" as="geometry"/></mxCell><mxCell id="r3bnBRtcG9dL7oqV6xBF-2" value="" style="strokeWidth=1;shadow=0;dashed=0;align=center;html=1;shape=mxgraph.mockup.containers.anchor;rSize=0;fontSize=17;fontColor=#666666;align=left;" parent="EfciY3o9bHrXIrIWPUq2-1" vertex="1"><mxGeometry x="130" y="60" width="250" height="26" as="geometry"/></mxCell><mxCell id="xOvrLTHYhZtEACcFBnxs-54" value="&lt;span style=&quot;color: rgb(102 , 102 , 102) ; font-size: 13px&quot;&gt;https://scion-microfrontend-platform-app-1.vercel.app/#/testing-app/browser-outlets;count=3&lt;/span&gt;" style="rounded=1;whiteSpace=wrap;html=1;shadow=0;comic=0;strokeColor=none;strokeWidth=1;fillColor=#fff2cc;fontFamily=Helvetica;fontSize=15;align=left;opacity=50;spacingLeft=27;spacingTop=-2;" parent="EfciY3o9bHrXIrIWPUq2-1" vertex="1"><mxGeometry x="100.5" y="55.5" width="560" height="35" as="geometry"/></mxCell><mxCell id="xOvrLTHYhZtEACcFBnxs-39" value="" style="group" parent="EfciY3o9bHrXIrIWPUq2-1" vertex="1" connectable="0"><mxGeometry x="15" y="130" width="200" height="220" as="geometry"/></mxCell><mxCell id="xOvrLTHYhZtEACcFBnxs-40" value="" style="rounded=0;whiteSpace=wrap;html=1;shadow=0;comic=0;strokeColor=#CCCCCC;strokeWidth=1;fontSize=12;fontColor=#808080;align=left;perimeterSpacing=12;" parent="xOvrLTHYhZtEACcFBnxs-39" vertex="1"><mxGeometry y="34" width="200" height="186" as="geometry"/></mxCell><mxCell id="xOvrLTHYhZtEACcFBnxs-41" value="Enter a URL for a micro..." style="rounded=0;whiteSpace=wrap;html=1;shadow=0;comic=0;strokeColor=#CCCCCC;strokeWidth=1;fontSize=12;fontColor=#808080;align=left;perimeterSpacing=102;spacingTop=0;spacingLeft=4;" parent="xOvrLTHYhZtEACcFBnxs-39" vertex="1"><mxGeometry width="200" height="30" as="geometry"/></mxCell><mxCell id="xOvrLTHYhZtEACcFBnxs-42" value="&lt;b&gt;GO&lt;/b&gt;" style="rounded=1;whiteSpace=wrap;html=1;shadow=0;comic=0;strokeColor=#CCCCCC;strokeWidth=1;fontSize=12;fontColor=#808080;fillColor=#f5f5f5;" parent="xOvrLTHYhZtEACcFBnxs-39" vertex="1"><mxGeometry x="170" y="3" width="24.13" height="24" as="geometry"/></mxCell><mxCell id="xOvrLTHYhZtEACcFBnxs-43" value="" style="triangle;whiteSpace=wrap;html=1;rounded=0;shadow=0;comic=0;strokeColor=#CCCCCC;strokeWidth=1;fillColor=#f5f5f5;fontFamily=Comic Sans MS;fontSize=12;fontColor=#333333;align=left;rotation=90;" parent="xOvrLTHYhZtEACcFBnxs-39" vertex="1"><mxGeometry x="156.99612903225798" y="10" width="4.25806451612903" height="10" as="geometry"/></mxCell><mxCell id="r3bnBRtcG9dL7oqV6xBF-9" value="" style="group" parent="EfciY3o9bHrXIrIWPUq2-1" vertex="1" connectable="0"><mxGeometry x="232.5" y="130" width="200" height="220" as="geometry"/></mxCell><mxCell id="r3bnBRtcG9dL7oqV6xBF-10" value="" style="rounded=0;whiteSpace=wrap;html=1;shadow=0;comic=0;strokeColor=#CCCCCC;strokeWidth=1;fontSize=12;fontColor=#808080;align=left;perimeterSpacing=12;" parent="r3bnBRtcG9dL7oqV6xBF-9" vertex="1"><mxGeometry y="34" width="200" height="186" as="geometry"/></mxCell><mxCell id="r3bnBRtcG9dL7oqV6xBF-11" value="Enter a URL for a micro..." style="rounded=0;whiteSpace=wrap;html=1;shadow=0;comic=0;strokeColor=#CCCCCC;strokeWidth=1;fontSize=12;fontColor=#808080;align=left;perimeterSpacing=102;spacingTop=0;spacingLeft=4;" parent="r3bnBRtcG9dL7oqV6xBF-9" vertex="1"><mxGeometry width="200" height="30" as="geometry"/></mxCell><mxCell id="r3bnBRtcG9dL7oqV6xBF-12" value="&lt;b&gt;GO&lt;/b&gt;" style="rounded=1;whiteSpace=wrap;html=1;shadow=0;comic=0;strokeColor=#CCCCCC;strokeWidth=1;fontSize=12;fontColor=#808080;fillColor=#f5f5f5;" parent="r3bnBRtcG9dL7oqV6xBF-9" vertex="1"><mxGeometry x="170" y="3" width="24.13" height="24" as="geometry"/></mxCell><mxCell id="r3bnBRtcG9dL7oqV6xBF-13" value="" style="triangle;whiteSpace=wrap;html=1;rounded=0;shadow=0;comic=0;strokeColor=#CCCCCC;strokeWidth=1;fillColor=#f5f5f5;fontFamily=Comic Sans MS;fontSize=12;fontColor=#333333;align=left;rotation=90;" parent="r3bnBRtcG9dL7oqV6xBF-9" vertex="1"><mxGeometry x="156.99612903225798" y="10" width="4.25806451612903" height="10" as="geometry"/></mxCell><mxCell id="r3bnBRtcG9dL7oqV6xBF-14" value="" style="group" parent="EfciY3o9bHrXIrIWPUq2-1" vertex="1" connectable="0"><mxGeometry x="450.5" y="130" width="200" height="220" as="geometry"/></mxCell><mxCell id="r3bnBRtcG9dL7oqV6xBF-15" value="" style="rounded=0;whiteSpace=wrap;html=1;shadow=0;comic=0;strokeColor=#CCCCCC;strokeWidth=1;fontSize=12;fontColor=#808080;align=left;perimeterSpacing=12;" parent="r3bnBRtcG9dL7oqV6xBF-14" vertex="1"><mxGeometry y="34" width="200" height="186" as="geometry"/></mxCell><mxCell id="r3bnBRtcG9dL7oqV6xBF-16" value="Enter a URL for a micro..." style="rounded=0;whiteSpace=wrap;html=1;shadow=0;comic=0;strokeColor=#CCCCCC;strokeWidth=1;fontSize=12;fontColor=#808080;align=left;perimeterSpacing=102;spacingTop=0;spacingLeft=4;" parent="r3bnBRtcG9dL7oqV6xBF-14" vertex="1"><mxGeometry width="200" height="30" as="geometry"/></mxCell><mxCell id="r3bnBRtcG9dL7oqV6xBF-17" value="&lt;b&gt;GO&lt;/b&gt;" style="rounded=1;whiteSpace=wrap;html=1;shadow=0;comic=0;strokeColor=#CCCCCC;strokeWidth=1;fontSize=12;fontColor=#808080;fillColor=#f5f5f5;" parent="r3bnBRtcG9dL7oqV6xBF-14" vertex="1"><mxGeometry x="170" y="3" width="24.13" height="24" as="geometry"/></mxCell><mxCell id="r3bnBRtcG9dL7oqV6xBF-18" value="" style="triangle;whiteSpace=wrap;html=1;rounded=0;shadow=0;comic=0;strokeColor=#CCCCCC;strokeWidth=1;fillColor=#f5f5f5;fontFamily=Comic Sans MS;fontSize=12;fontColor=#333333;align=left;rotation=90;" parent="r3bnBRtcG9dL7oqV6xBF-14" vertex="1"><mxGeometry x="156.99612903225798" y="10" width="4.25806451612903" height="10" as="geometry"/></mxCell></root></mxGraphModel></diagram><diagram name="e2e-app_nested-browser-outlets-example" id="Wi3789XBi_EQpgH2rvFP"><mxGraphModel dx="1852" dy="462" grid="1" gridSize="10" guides="1" tooltips="1" connect="1" arrows="1" fold="1" page="1" pageScale="1" pageWidth="850" pageHeight="1100" math="0" shadow="0"><root><mxCell id="8AZhTGWcX2AH7gArJKrO-0"/><mxCell id="8AZhTGWcX2AH7gArJKrO-1" parent="8AZhTGWcX2AH7gArJKrO-0"/><mxCell id="8AZhTGWcX2AH7gArJKrO-2" value="" style="strokeWidth=1;shadow=0;align=center;html=1;shape=mxgraph.mockup.containers.browserWindow;rSize=0;strokeColor2=#C4C4C4;strokeColor3=#c4c4c4;mainText=,;recursiveResize=0;comic=0;horizontal=1;verticalAlign=middle;perimeterSpacing=0;noLabel=0;strokeColor=#CCCCCC;container=0;" parent="8AZhTGWcX2AH7gArJKrO-1" vertex="1"><mxGeometry x="60" y="200" width="670" height="390" as="geometry"/></mxCell><mxCell id="8AZhTGWcX2AH7gArJKrO-21" value="" style="strokeWidth=1;shadow=0;dashed=0;align=center;html=1;shape=mxgraph.mockup.containers.anchor;rSize=0;fontSize=17;fontColor=#666666;align=left;" parent="8AZhTGWcX2AH7gArJKrO-1" vertex="1"><mxGeometry x="-180" y="130" width="250" height="26" as="geometry"/></mxCell><mxCell id="8AZhTGWcX2AH7gArJKrO-3" value="" style="strokeWidth=1;shadow=0;dashed=0;align=center;html=1;shape=mxgraph.mockup.containers.anchor;fontSize=17;fontColor=#666666;align=left;" parent="8AZhTGWcX2AH7gArJKrO-1" vertex="1"><mxGeometry x="120" y="212" width="110" height="26" as="geometry"/></mxCell><mxCell id="8AZhTGWcX2AH7gArJKrO-4" value="" style="strokeWidth=1;shadow=0;dashed=0;align=center;html=1;shape=mxgraph.mockup.containers.anchor;rSize=0;fontSize=17;fontColor=#666666;align=left;" parent="8AZhTGWcX2AH7gArJKrO-1" vertex="1"><mxGeometry x="190" y="260" width="250" height="26" as="geometry"/></mxCell><mxCell id="8AZhTGWcX2AH7gArJKrO-5" value="&lt;span style=&quot;color: rgb(102 , 102 , 102) ; font-size: 13px&quot;&gt;https://scion-microfrontend-platform-app-1.vercel.app/#/testing-app/browser-outlets;count=2&lt;/span&gt;" style="rounded=1;whiteSpace=wrap;html=1;shadow=0;comic=0;strokeColor=none;strokeWidth=1;fillColor=none;fontFamily=Helvetica;fontSize=15;align=left;opacity=50;spacingLeft=27;spacingTop=-2;" parent="8AZhTGWcX2AH7gArJKrO-1" vertex="1"><mxGeometry x="160.5" y="255.5" width="559.5" height="35" as="geometry"/></mxCell><mxCell id="8AZhTGWcX2AH7gArJKrO-6" value="" style="group" parent="8AZhTGWcX2AH7gArJKrO-1" vertex="1" connectable="0"><mxGeometry x="75" y="320" width="525" height="270" as="geometry"/></mxCell><mxCell id="8AZhTGWcX2AH7gArJKrO-7" value="" style="rounded=0;whiteSpace=wrap;html=1;shadow=0;comic=0;strokeColor=#CCCCCC;strokeWidth=1;fontSize=12;fontColor=#808080;align=left;perimeterSpacing=12;" parent="8AZhTGWcX2AH7gArJKrO-6" vertex="1"><mxGeometry y="34" width="424" height="231" as="geometry"/></mxCell><mxCell id="8AZhTGWcX2AH7gArJKrO-8" value="../browser-outlets;count=2" style="rounded=0;whiteSpace=wrap;html=1;shadow=0;comic=0;strokeColor=#CCCCCC;strokeWidth=1;fontSize=12;fontColor=#808080;align=left;perimeterSpacing=102;spacingTop=0;spacingLeft=4;fillColor=#FFF2CC;opacity=50;" parent="8AZhTGWcX2AH7gArJKrO-6" vertex="1"><mxGeometry width="424" height="30" as="geometry"/></mxCell><mxCell id="8AZhTGWcX2AH7gArJKrO-9" value="&lt;b&gt;GO&lt;/b&gt;" style="rounded=1;whiteSpace=wrap;html=1;shadow=0;comic=0;strokeColor=#CCCCCC;strokeWidth=1;fontSize=12;fontColor=#808080;fillColor=#f5f5f5;" parent="8AZhTGWcX2AH7gArJKrO-6" vertex="1"><mxGeometry x="395" y="3" width="24.13" height="24" as="geometry"/></mxCell><mxCell id="8AZhTGWcX2AH7gArJKrO-10" value="" style="triangle;whiteSpace=wrap;html=1;rounded=0;shadow=0;comic=0;strokeColor=#CCCCCC;strokeWidth=1;fillColor=#f5f5f5;fontFamily=Comic Sans MS;fontSize=12;fontColor=#333333;align=left;rotation=90;" parent="8AZhTGWcX2AH7gArJKrO-6" vertex="1"><mxGeometry x="380.99612903225795" y="10" width="4.25806451612903" height="10" as="geometry"/></mxCell><mxCell id="8AZhTGWcX2AH7gArJKrO-22" value="" style="group" parent="8AZhTGWcX2AH7gArJKrO-6" vertex="1" connectable="0"><mxGeometry x="5" y="40" width="520" height="220" as="geometry"/></mxCell><mxCell id="8AZhTGWcX2AH7gArJKrO-23" value="" style="rounded=0;whiteSpace=wrap;html=1;shadow=0;comic=0;strokeColor=#CCCCCC;strokeWidth=1;fontSize=12;fontColor=#808080;align=left;perimeterSpacing=12;" parent="8AZhTGWcX2AH7gArJKrO-22" vertex="1"><mxGeometry y="34" width="200" height="186" as="geometry"/></mxCell><mxCell id="8AZhTGWcX2AH7gArJKrO-24" value="Enter a URL for a micro..." style="rounded=0;whiteSpace=wrap;html=1;shadow=0;comic=0;strokeColor=#CCCCCC;strokeWidth=1;fontSize=12;fontColor=#808080;align=left;perimeterSpacing=102;spacingTop=0;spacingLeft=4;" parent="8AZhTGWcX2AH7gArJKrO-22" vertex="1"><mxGeometry width="200" height="30" as="geometry"/></mxCell><mxCell id="8AZhTGWcX2AH7gArJKrO-25" value="&lt;b&gt;GO&lt;/b&gt;" style="rounded=1;whiteSpace=wrap;html=1;shadow=0;comic=0;strokeColor=#CCCCCC;strokeWidth=1;fontSize=12;fontColor=#808080;fillColor=#f5f5f5;" parent="8AZhTGWcX2AH7gArJKrO-22" vertex="1"><mxGeometry x="170" y="3" width="24.13" height="24" as="geometry"/></mxCell><mxCell id="8AZhTGWcX2AH7gArJKrO-26" value="" style="triangle;whiteSpace=wrap;html=1;rounded=0;shadow=0;comic=0;strokeColor=#CCCCCC;strokeWidth=1;fillColor=#f5f5f5;fontFamily=Comic Sans MS;fontSize=12;fontColor=#333333;align=left;rotation=90;" parent="8AZhTGWcX2AH7gArJKrO-22" vertex="1"><mxGeometry x="156.99612903225798" y="10" width="4.25806451612903" height="10" as="geometry"/></mxCell><mxCell id="8AZhTGWcX2AH7gArJKrO-27" value="" style="group" parent="8AZhTGWcX2AH7gArJKrO-6" vertex="1" connectable="0"><mxGeometry x="219.13" y="40" width="200" height="220" as="geometry"/></mxCell><mxCell id="8AZhTGWcX2AH7gArJKrO-28" value="" style="rounded=0;whiteSpace=wrap;html=1;shadow=0;comic=0;strokeColor=#CCCCCC;strokeWidth=1;fontSize=12;fontColor=#808080;align=left;perimeterSpacing=12;" parent="8AZhTGWcX2AH7gArJKrO-27" vertex="1"><mxGeometry y="34" width="200" height="186" as="geometry"/></mxCell><mxCell id="8AZhTGWcX2AH7gArJKrO-29" value="Enter a URL for a micro..." style="rounded=0;whiteSpace=wrap;html=1;shadow=0;comic=0;strokeColor=#CCCCCC;strokeWidth=1;fontSize=12;fontColor=#808080;align=left;perimeterSpacing=102;spacingTop=0;spacingLeft=4;" parent="8AZhTGWcX2AH7gArJKrO-27" vertex="1"><mxGeometry width="200" height="30" as="geometry"/></mxCell><mxCell id="8AZhTGWcX2AH7gArJKrO-30" value="&lt;b&gt;GO&lt;/b&gt;" style="rounded=1;whiteSpace=wrap;html=1;shadow=0;comic=0;strokeColor=#CCCCCC;strokeWidth=1;fontSize=12;fontColor=#808080;fillColor=#f5f5f5;" parent="8AZhTGWcX2AH7gArJKrO-27" vertex="1"><mxGeometry x="170" y="3" width="24.13" height="24" as="geometry"/></mxCell><mxCell id="8AZhTGWcX2AH7gArJKrO-31" value="" style="triangle;whiteSpace=wrap;html=1;rounded=0;shadow=0;comic=0;strokeColor=#CCCCCC;strokeWidth=1;fillColor=#f5f5f5;fontFamily=Comic Sans MS;fontSize=12;fontColor=#333333;align=left;rotation=90;" parent="8AZhTGWcX2AH7gArJKrO-27" vertex="1"><mxGeometry x="156.99612903225798" y="10" width="4.25806451612903" height="10" as="geometry"/></mxCell><mxCell id="8AZhTGWcX2AH7gArJKrO-16" value="" style="group" parent="8AZhTGWcX2AH7gArJKrO-1" vertex="1" connectable="0"><mxGeometry x="510.5" y="320" width="200" height="265" as="geometry"/></mxCell><mxCell id="8AZhTGWcX2AH7gArJKrO-17" value="" style="rounded=0;whiteSpace=wrap;html=1;shadow=0;comic=0;strokeColor=#CCCCCC;strokeWidth=1;fontSize=12;fontColor=#808080;align=left;perimeterSpacing=12;" parent="8AZhTGWcX2AH7gArJKrO-16" vertex="1"><mxGeometry y="34" width="200" height="231" as="geometry"/></mxCell><mxCell id="8AZhTGWcX2AH7gArJKrO-18" value="Enter a URL for a micro..." style="rounded=0;whiteSpace=wrap;html=1;shadow=0;comic=0;strokeColor=#CCCCCC;strokeWidth=1;fontSize=12;fontColor=#808080;align=left;perimeterSpacing=102;spacingTop=0;spacingLeft=4;" parent="8AZhTGWcX2AH7gArJKrO-16" vertex="1"><mxGeometry width="200" height="30" as="geometry"/></mxCell><mxCell id="6KwMrKxnM_2y7ar8JzwM-1" value="&lt;b&gt;GO&lt;/b&gt;" style="rounded=1;whiteSpace=wrap;html=1;shadow=0;comic=0;strokeColor=#CCCCCC;strokeWidth=1;fontSize=12;fontColor=#808080;fillColor=#f5f5f5;" parent="8AZhTGWcX2AH7gArJKrO-16" vertex="1"><mxGeometry x="172.5" y="3" width="24.13" height="24" as="geometry"/></mxCell><mxCell id="6KwMrKxnM_2y7ar8JzwM-2" value="" style="triangle;whiteSpace=wrap;html=1;rounded=0;shadow=0;comic=0;strokeColor=#CCCCCC;strokeWidth=1;fillColor=#f5f5f5;fontFamily=Comic Sans MS;fontSize=12;fontColor=#333333;align=left;rotation=90;" parent="8AZhTGWcX2AH7gArJKrO-16" vertex="1"><mxGeometry x="159.49612903225795" y="10" width="4.25806451612903" height="10" as="geometry"/></mxCell></root></mxGraphModel></diagram><diagram id="lc7kltson88mEH5OazAj" name="microfrontend-architecture"><mxGraphModel dx="2062" dy="1161" grid="1" gridSize="10" guides="1" tooltips="1" connect="1" arrows="1" fold="1" page="1" pageScale="1" pageWidth="850" pageHeight="1100" math="0" shadow="0"><root><mxCell id="iWHPo-Ww76Gp74wJxTP6-0"/><mxCell id="iWHPo-Ww76Gp74wJxTP6-1" parent="iWHPo-Ww76Gp74wJxTP6-0"/><mxCell id="Rd4PPrT6uge47Xn70t53-0" value="" style="endArrow=none;dashed=1;html=1;" parent="iWHPo-Ww76Gp74wJxTP6-1" edge="1"><mxGeometry width="50" height="50" relative="1" as="geometry"><mxPoint x="40" y="294" as="sourcePoint"/><mxPoint x="520" y="294" as="targetPoint"/></mxGeometry></mxCell><mxCell id="Rd4PPrT6uge47Xn70t53-1" value="&lt;b&gt;Micro Application&lt;/b&gt;" style="rounded=0;whiteSpace=wrap;html=1;comic=0;dashed=1;horizontal=1;verticalAlign=top;" parent="iWHPo-Ww76Gp74wJxTP6-1" vertex="1"><mxGeometry x="380" y="170" width="115" height="210" as="geometry"/></mxCell><mxCell id="Rd4PPrT6uge47Xn70t53-2" value="&lt;b&gt;Micro Application&lt;/b&gt;" style="rounded=0;whiteSpace=wrap;html=1;comic=0;dashed=1;horizontal=1;verticalAlign=top;" parent="iWHPo-Ww76Gp74wJxTP6-1" vertex="1"><mxGeometry x="240" y="170" width="115" height="210" as="geometry"/></mxCell><mxCell id="Rd4PPrT6uge47Xn70t53-3" value="&lt;b&gt;Micro Application&lt;/b&gt;" style="rounded=0;whiteSpace=wrap;html=1;comic=0;dashed=1;horizontal=1;verticalAlign=top;" parent="iWHPo-Ww76Gp74wJxTP6-1" vertex="1"><mxGeometry x="100" y="170" width="115" height="210" as="geometry"/></mxCell><mxCell id="Rd4PPrT6uge47Xn70t53-4" value="" style="rounded=0;whiteSpace=wrap;html=1;comic=0;horizontal=0;verticalAlign=top;fillColor=#ffe6cc;strokeColor=#d79b00;" parent="iWHPo-Ww76Gp74wJxTP6-1" vertex="1"><mxGeometry x="87.5" y="210" width="420" height="60" as="geometry"/></mxCell><mxCell id="Rd4PPrT6uge47Xn70t53-5" value="Backend" style="text;html=1;strokeColor=none;fillColor=none;align=center;verticalAlign=middle;whiteSpace=wrap;rounded=0;comic=1;rotation=-90;" parent="iWHPo-Ww76Gp74wJxTP6-1" vertex="1"><mxGeometry x="40" y="329" width="40" height="20" as="geometry"/></mxCell><mxCell id="Rd4PPrT6uge47Xn70t53-6" value="Frontend" style="text;html=1;strokeColor=none;fillColor=none;align=center;verticalAlign=middle;whiteSpace=wrap;rounded=0;comic=1;rotation=-90;" parent="iWHPo-Ww76Gp74wJxTP6-1" vertex="1"><mxGeometry x="40" y="233" width="40" height="20" as="geometry"/></mxCell><mxCell id="Rd4PPrT6uge47Xn70t53-7" value="" style="endArrow=block;startArrow=block;html=1;startFill=1;endFill=1;exitX=0.5;exitY=-0.056;exitDx=0;exitDy=0;exitPerimeter=0;" parent="iWHPo-Ww76Gp74wJxTP6-1" edge="1"><mxGeometry width="50" height="50" relative="1" as="geometry"><mxPoint x="157.32999999999993" y="301.2000000000003" as="sourcePoint"/><mxPoint x="157.32999999999993" y="274" as="targetPoint"/></mxGeometry></mxCell><mxCell id="Rd4PPrT6uge47Xn70t53-8" value="Microfrontend" style="rounded=0;whiteSpace=wrap;html=1;comic=0;fillColor=#dae8fc;strokeColor=#6c8ebf;verticalAlign=top;spacingTop=8;" parent="iWHPo-Ww76Gp74wJxTP6-1" vertex="1"><mxGeometry x="115" y="215" width="84" height="50" as="geometry"/></mxCell><mxCell id="Rd4PPrT6uge47Xn70t53-9" value="" style="rounded=0;whiteSpace=wrap;html=1;comic=0;fillColor=#dae8fc;strokeColor=#A3BBDE;" parent="iWHPo-Ww76Gp74wJxTP6-1" vertex="1"><mxGeometry x="182" y="248" width="10" height="10" as="geometry"/></mxCell><mxCell id="Rd4PPrT6uge47Xn70t53-10" value="" style="rounded=0;whiteSpace=wrap;html=1;comic=0;fillColor=#dae8fc;strokeColor=#A3BBDE;" parent="iWHPo-Ww76Gp74wJxTP6-1" vertex="1"><mxGeometry x="184" y="250" width="10" height="10" as="geometry"/></mxCell><mxCell id="Rd4PPrT6uge47Xn70t53-11" value="" style="rounded=0;whiteSpace=wrap;html=1;comic=0;fillColor=#dae8fc;strokeColor=#A3BBDE;" parent="iWHPo-Ww76Gp74wJxTP6-1" vertex="1"><mxGeometry x="186" y="252" width="10" height="10" as="geometry"/></mxCell><mxCell id="Rd4PPrT6uge47Xn70t53-12" value="" style="group" parent="iWHPo-Ww76Gp74wJxTP6-1" vertex="1" connectable="0"><mxGeometry x="115" y="310" width="134" height="60" as="geometry"/></mxCell><mxCell id="Rd4PPrT6uge47Xn70t53-13" value="" style="group" parent="Rd4PPrT6uge47Xn70t53-12" vertex="1" connectable="0"><mxGeometry width="84" height="50" as="geometry"/></mxCell><mxCell id="Rd4PPrT6uge47Xn70t53-14" value="Microservice" style="rounded=0;whiteSpace=wrap;html=1;comic=0;fillColor=#dae8fc;strokeColor=#6c8ebf;verticalAlign=top;spacingTop=8;" parent="Rd4PPrT6uge47Xn70t53-13" vertex="1"><mxGeometry width="84" height="50" as="geometry"/></mxCell><mxCell id="Rd4PPrT6uge47Xn70t53-15" value="" style="group" parent="Rd4PPrT6uge47Xn70t53-12" vertex="1" connectable="0"><mxGeometry x="67" y="33" width="67" height="27" as="geometry"/></mxCell><mxCell id="Rd4PPrT6uge47Xn70t53-16" value="" style="rounded=0;whiteSpace=wrap;html=1;comic=0;fillColor=#dae8fc;strokeColor=#A3BBDE;" parent="Rd4PPrT6uge47Xn70t53-15" vertex="1"><mxGeometry width="10" height="10" as="geometry"/></mxCell><mxCell id="Rd4PPrT6uge47Xn70t53-17" value="" style="rounded=0;whiteSpace=wrap;html=1;comic=0;fillColor=#dae8fc;strokeColor=#A3BBDE;" parent="Rd4PPrT6uge47Xn70t53-15" vertex="1"><mxGeometry x="2" y="2" width="10" height="10" as="geometry"/></mxCell><mxCell id="Rd4PPrT6uge47Xn70t53-18" value="" style="rounded=0;whiteSpace=wrap;html=1;comic=0;fillColor=#dae8fc;strokeColor=#A3BBDE;" parent="Rd4PPrT6uge47Xn70t53-15" vertex="1"><mxGeometry x="4" y="4" width="10" height="10" as="geometry"/></mxCell><mxCell id="Rd4PPrT6uge47Xn70t53-19" value="" style="endArrow=block;startArrow=block;html=1;startFill=1;endFill=1;exitX=0.5;exitY=-0.056;exitDx=0;exitDy=0;exitPerimeter=0;" parent="iWHPo-Ww76Gp74wJxTP6-1" edge="1"><mxGeometry width="50" height="50" relative="1" as="geometry"><mxPoint x="297.3299999999999" y="301.2000000000003" as="sourcePoint"/><mxPoint x="297.3299999999999" y="274" as="targetPoint"/></mxGeometry></mxCell><mxCell id="Rd4PPrT6uge47Xn70t53-20" value="Microfrontend" style="rounded=0;whiteSpace=wrap;html=1;comic=0;fillColor=#dae8fc;strokeColor=#6c8ebf;verticalAlign=top;spacingTop=8;" parent="iWHPo-Ww76Gp74wJxTP6-1" vertex="1"><mxGeometry x="255" y="215" width="84" height="50" as="geometry"/></mxCell><mxCell id="Rd4PPrT6uge47Xn70t53-21" value="" style="rounded=0;whiteSpace=wrap;html=1;comic=0;fillColor=#dae8fc;strokeColor=#A3BBDE;" parent="iWHPo-Ww76Gp74wJxTP6-1" vertex="1"><mxGeometry x="322" y="248" width="10" height="10" as="geometry"/></mxCell><mxCell id="Rd4PPrT6uge47Xn70t53-22" value="" style="rounded=0;whiteSpace=wrap;html=1;comic=0;fillColor=#dae8fc;strokeColor=#A3BBDE;" parent="iWHPo-Ww76Gp74wJxTP6-1" vertex="1"><mxGeometry x="324" y="250" width="10" height="10" as="geometry"/></mxCell><mxCell id="Rd4PPrT6uge47Xn70t53-23" value="" style="rounded=0;whiteSpace=wrap;html=1;comic=0;fillColor=#dae8fc;strokeColor=#A3BBDE;" parent="iWHPo-Ww76Gp74wJxTP6-1" vertex="1"><mxGeometry x="326" y="252" width="10" height="10" as="geometry"/></mxCell><mxCell id="Rd4PPrT6uge47Xn70t53-24" value="" style="group" parent="iWHPo-Ww76Gp74wJxTP6-1" vertex="1" connectable="0"><mxGeometry x="255" y="310" width="84" height="50" as="geometry"/></mxCell><mxCell id="Rd4PPrT6uge47Xn70t53-25" value="Microservice" style="rounded=0;whiteSpace=wrap;html=1;comic=0;fillColor=#dae8fc;strokeColor=#6c8ebf;verticalAlign=top;spacingTop=8;" parent="Rd4PPrT6uge47Xn70t53-24" vertex="1"><mxGeometry width="84" height="50" as="geometry"/></mxCell><mxCell id="Rd4PPrT6uge47Xn70t53-26" value="" style="rounded=0;whiteSpace=wrap;html=1;comic=0;fillColor=#dae8fc;strokeColor=#A3BBDE;" parent="iWHPo-Ww76Gp74wJxTP6-1" vertex="1"><mxGeometry x="322" y="343" width="10" height="10" as="geometry"/></mxCell><mxCell id="Rd4PPrT6uge47Xn70t53-27" value="" style="rounded=0;whiteSpace=wrap;html=1;comic=0;fillColor=#dae8fc;strokeColor=#A3BBDE;" parent="iWHPo-Ww76Gp74wJxTP6-1" vertex="1"><mxGeometry x="324" y="345" width="10" height="10" as="geometry"/></mxCell><mxCell id="Rd4PPrT6uge47Xn70t53-28" value="" style="rounded=0;whiteSpace=wrap;html=1;comic=0;fillColor=#dae8fc;strokeColor=#A3BBDE;" parent="iWHPo-Ww76Gp74wJxTP6-1" vertex="1"><mxGeometry x="326" y="347" width="10" height="10" as="geometry"/></mxCell><mxCell id="Rd4PPrT6uge47Xn70t53-29" value="" style="endArrow=block;startArrow=block;html=1;startFill=1;endFill=1;exitX=0.5;exitY=-0.056;exitDx=0;exitDy=0;exitPerimeter=0;" parent="iWHPo-Ww76Gp74wJxTP6-1" edge="1"><mxGeometry width="50" height="50" relative="1" as="geometry"><mxPoint x="437.3299999999999" y="301.2000000000003" as="sourcePoint"/><mxPoint x="437.3299999999999" y="274" as="targetPoint"/></mxGeometry></mxCell><mxCell id="Rd4PPrT6uge47Xn70t53-30" value="Microfrontend" style="rounded=0;whiteSpace=wrap;html=1;comic=0;fillColor=#dae8fc;strokeColor=#6c8ebf;verticalAlign=top;spacingTop=8;" parent="iWHPo-Ww76Gp74wJxTP6-1" vertex="1"><mxGeometry x="395" y="215" width="84" height="50" as="geometry"/></mxCell><mxCell id="Rd4PPrT6uge47Xn70t53-31" value="" style="rounded=0;whiteSpace=wrap;html=1;comic=0;fillColor=#dae8fc;strokeColor=#A3BBDE;" parent="iWHPo-Ww76Gp74wJxTP6-1" vertex="1"><mxGeometry x="462" y="248" width="10" height="10" as="geometry"/></mxCell><mxCell id="Rd4PPrT6uge47Xn70t53-32" value="" style="rounded=0;whiteSpace=wrap;html=1;comic=0;fillColor=#dae8fc;strokeColor=#A3BBDE;" parent="iWHPo-Ww76Gp74wJxTP6-1" vertex="1"><mxGeometry x="464" y="250" width="10" height="10" as="geometry"/></mxCell><mxCell id="Rd4PPrT6uge47Xn70t53-33" value="" style="rounded=0;whiteSpace=wrap;html=1;comic=0;fillColor=#dae8fc;strokeColor=#A3BBDE;" parent="iWHPo-Ww76Gp74wJxTP6-1" vertex="1"><mxGeometry x="466" y="252" width="10" height="10" as="geometry"/></mxCell><mxCell id="Rd4PPrT6uge47Xn70t53-34" value="" style="group" parent="iWHPo-Ww76Gp74wJxTP6-1" vertex="1" connectable="0"><mxGeometry x="395" y="310" width="84" height="50" as="geometry"/></mxCell><mxCell id="Rd4PPrT6uge47Xn70t53-35" value="Microservice" style="rounded=0;whiteSpace=wrap;html=1;comic=0;fillColor=#dae8fc;strokeColor=#6c8ebf;verticalAlign=top;spacingTop=8;" parent="Rd4PPrT6uge47Xn70t53-34" vertex="1"><mxGeometry width="84" height="50" as="geometry"/></mxCell><mxCell id="Rd4PPrT6uge47Xn70t53-36" value="" style="rounded=0;whiteSpace=wrap;html=1;comic=0;fillColor=#dae8fc;strokeColor=#A3BBDE;" parent="iWHPo-Ww76Gp74wJxTP6-1" vertex="1"><mxGeometry x="462" y="343" width="10" height="10" as="geometry"/></mxCell><mxCell id="Rd4PPrT6uge47Xn70t53-37" value="" style="rounded=0;whiteSpace=wrap;html=1;comic=0;fillColor=#dae8fc;strokeColor=#A3BBDE;" parent="iWHPo-Ww76Gp74wJxTP6-1" vertex="1"><mxGeometry x="464" y="345" width="10" height="10" as="geometry"/></mxCell><mxCell id="Rd4PPrT6uge47Xn70t53-38" value="" style="rounded=0;whiteSpace=wrap;html=1;comic=0;fillColor=#dae8fc;strokeColor=#A3BBDE;" parent="iWHPo-Ww76Gp74wJxTP6-1" vertex="1"><mxGeometry x="466" y="347" width="10" height="10" as="geometry"/></mxCell></root></mxGraphModel></diagram><diagram id="E7dQ7rNP5-GwCEjD3xdW" name="semver"><mxGraphModel dx="1084" dy="964" grid="1" gridSize="10" guides="1" tooltips="1" connect="1" arrows="1" fold="1" page="1" pageScale="1" pageWidth="850" pageHeight="1100" math="0" shadow="0"><root><mxCell id="3fpdJRdnF-UDucnwDFXd-0"/><mxCell id="3fpdJRdnF-UDucnwDFXd-1" parent="3fpdJRdnF-UDucnwDFXd-0"/><mxCell id="xOdXs_tV_LrtNAAJluhc-84" value="" style="endArrow=none;html=1;fontSize=10;entryX=0.5;entryY=1;entryDx=0;entryDy=0;" parent="3fpdJRdnF-UDucnwDFXd-1" target="xOdXs_tV_LrtNAAJluhc-98" edge="1"><mxGeometry width="50" height="50" relative="1" as="geometry"><mxPoint x="100" y="681" as="sourcePoint"/><mxPoint x="70" y="790" as="targetPoint"/></mxGeometry></mxCell><mxCell id="xOdXs_tV_LrtNAAJluhc-2" value="" style="ellipse;aspect=fixed;align=left;spacingLeft=13;fontSize=10;verticalAlign=middle;" parent="3fpdJRdnF-UDucnwDFXd-1" vertex="1"><mxGeometry x="95" y="257" width="10" height="10" as="geometry"/></mxCell><mxCell id="xOdXs_tV_LrtNAAJluhc-4" value="" style="ellipse;whiteSpace=wrap;html=1;align=left;fontSize=10;verticalAlign=middle;" parent="3fpdJRdnF-UDucnwDFXd-1" vertex="1"><mxGeometry x="95" y="284" width="10" height="10" as="geometry"/></mxCell><mxCell id="xOdXs_tV_LrtNAAJluhc-6" value="" style="ellipse;whiteSpace=wrap;html=1;align=left;fontSize=10;verticalAlign=middle;" parent="3fpdJRdnF-UDucnwDFXd-1" vertex="1"><mxGeometry x="95" y="337" width="10" height="10" as="geometry"/></mxCell><mxCell id="xOdXs_tV_LrtNAAJluhc-7" value="" style="ellipse;html=1;align=left;fontSize=10;verticalAlign=middle;spacingLeft=13;" parent="3fpdJRdnF-UDucnwDFXd-1" vertex="1"><mxGeometry x="95" y="364" width="10" height="10" as="geometry"/></mxCell><mxCell id="xOdXs_tV_LrtNAAJluhc-8" value="" style="ellipse;whiteSpace=wrap;html=1;align=left;fontSize=10;verticalAlign=middle;" parent="3fpdJRdnF-UDucnwDFXd-1" vertex="1"><mxGeometry x="95" y="391" width="10" height="10" as="geometry"/></mxCell><mxCell id="xOdXs_tV_LrtNAAJluhc-9" value="" style="ellipse;aspect=fixed;align=left;spacingLeft=13;fontSize=10;verticalAlign=middle;" parent="3fpdJRdnF-UDucnwDFXd-1" vertex="1"><mxGeometry x="95" y="418" width="10" height="10" as="geometry"/></mxCell><mxCell id="xOdXs_tV_LrtNAAJluhc-10" value="" style="ellipse;aspect=fixed;align=left;spacingLeft=13;fontSize=10;verticalAlign=middle;" parent="3fpdJRdnF-UDucnwDFXd-1" vertex="1"><mxGeometry x="95" y="471" width="10" height="10" as="geometry"/></mxCell><mxCell id="xOdXs_tV_LrtNAAJluhc-11" value="" style="ellipse;whiteSpace=wrap;html=1;align=left;fontSize=10;verticalAlign=middle;" parent="3fpdJRdnF-UDucnwDFXd-1" vertex="1"><mxGeometry x="95" y="444" width="10" height="10" as="geometry"/></mxCell><mxCell id="xOdXs_tV_LrtNAAJluhc-12" value="" style="ellipse;aspect=fixed;align=left;spacingLeft=13;fontSize=10;verticalAlign=middle;" parent="3fpdJRdnF-UDucnwDFXd-1" vertex="1"><mxGeometry x="95" y="498" width="10" height="10" as="geometry"/></mxCell><mxCell id="xOdXs_tV_LrtNAAJluhc-13" value="" style="ellipse;aspect=fixed;align=left;spacingLeft=13;fontSize=10;verticalAlign=middle;" parent="3fpdJRdnF-UDucnwDFXd-1" vertex="1"><mxGeometry x="95" y="525" width="10" height="10" as="geometry"/></mxCell><mxCell id="xOdXs_tV_LrtNAAJluhc-14" value="" style="endArrow=none;html=1;fontSize=10;verticalAlign=middle;" parent="3fpdJRdnF-UDucnwDFXd-1" edge="1"><mxGeometry width="50" height="50" relative="1" as="geometry"><mxPoint x="234" y="680" as="sourcePoint"/><mxPoint x="105" y="503" as="targetPoint"/><Array as="points"><mxPoint x="234" y="503"/></Array></mxGeometry></mxCell><mxCell id="xOdXs_tV_LrtNAAJluhc-16" value="" style="ellipse;aspect=fixed;align=left;spacingLeft=13;fontSize=10;verticalAlign=middle;" parent="3fpdJRdnF-UDucnwDFXd-1" vertex="1"><mxGeometry x="228.99999999999997" y="525" width="10" height="10" as="geometry"/></mxCell><mxCell id="xOdXs_tV_LrtNAAJluhc-17" value="" style="ellipse;aspect=fixed;align=left;spacingLeft=13;fontSize=10;verticalAlign=middle;" parent="3fpdJRdnF-UDucnwDFXd-1" vertex="1"><mxGeometry x="95" y="551" width="10" height="10" as="geometry"/></mxCell><mxCell id="xOdXs_tV_LrtNAAJluhc-18" value="" style="ellipse;aspect=fixed;align=left;spacingLeft=13;fontSize=10;verticalAlign=middle;" parent="3fpdJRdnF-UDucnwDFXd-1" vertex="1"><mxGeometry x="95" y="578" width="10" height="10" as="geometry"/></mxCell><mxCell id="xOdXs_tV_LrtNAAJluhc-19" value="" style="ellipse;aspect=fixed;align=left;spacingLeft=13;fontSize=10;verticalAlign=middle;" parent="3fpdJRdnF-UDucnwDFXd-1" vertex="1"><mxGeometry x="95" y="605" width="10" height="10" as="geometry"/></mxCell><mxCell id="xOdXs_tV_LrtNAAJluhc-21" value="" style="ellipse;aspect=fixed;align=left;spacingLeft=13;fontSize=10;verticalAlign=middle;" parent="3fpdJRdnF-UDucnwDFXd-1" vertex="1"><mxGeometry x="228.99999999999997" y="578" width="10" height="10" as="geometry"/></mxCell><mxCell id="xOdXs_tV_LrtNAAJluhc-23" value="" style="ellipse;aspect=fixed;align=left;spacingLeft=13;fontSize=10;verticalAlign=middle;" parent="3fpdJRdnF-UDucnwDFXd-1" vertex="1"><mxGeometry x="228.99999999999997" y="605" width="10" height="10" as="geometry"/></mxCell><mxCell id="xOdXs_tV_LrtNAAJluhc-24" value="" style="ellipse;aspect=fixed;align=left;spacingLeft=13;fontSize=10;verticalAlign=middle;" parent="3fpdJRdnF-UDucnwDFXd-1" vertex="1"><mxGeometry x="95" y="658" width="10" height="10" as="geometry"/></mxCell><mxCell id="xOdXs_tV_LrtNAAJluhc-25" value="" style="ellipse;aspect=fixed;align=left;spacingLeft=13;fontSize=10;verticalAlign=middle;" parent="3fpdJRdnF-UDucnwDFXd-1" vertex="1"><mxGeometry x="95" y="632" width="10" height="10" as="geometry"/></mxCell><mxCell id="xOdXs_tV_LrtNAAJluhc-30" value="" style="ellipse;aspect=fixed;align=left;spacingLeft=13;fontSize=10;verticalAlign=middle;" parent="3fpdJRdnF-UDucnwDFXd-1" vertex="1"><mxGeometry x="228.99999999999997" y="632" width="10" height="10" as="geometry"/></mxCell><mxCell id="xOdXs_tV_LrtNAAJluhc-3" value="" style="ellipse;aspect=fixed;align=left;spacingLeft=13;verticalAlign=middle;fontSize=10;" parent="3fpdJRdnF-UDucnwDFXd-1" vertex="1"><mxGeometry x="95" y="311" width="10" height="10" as="geometry"/></mxCell><mxCell id="xOdXs_tV_LrtNAAJluhc-65" value="&lt;span style=&quot;color: rgb(0, 0, 0); font-size: 12px; text-align: left; white-space: nowrap;&quot;&gt;1.0.0-beta.1&lt;/span&gt;" style="text;html=1;strokeColor=#b85450;fillColor=#f8cecc;align=center;verticalAlign=middle;whiteSpace=wrap;rounded=1;spacingBottom=0;spacingTop=0;spacingLeft=0;spacingRight=0;spacing=0;fontSize=12;" parent="3fpdJRdnF-UDucnwDFXd-1" vertex="1"><mxGeometry x="6" y="252.5" width="80" height="19" as="geometry"/></mxCell><mxCell id="xOdXs_tV_LrtNAAJluhc-68" value="&lt;span style=&quot;color: rgb(0, 0, 0); font-size: 12px; text-align: left; white-space: nowrap;&quot;&gt;1.0.0-beta.2&lt;/span&gt;" style="text;html=1;strokeColor=#b85450;fillColor=#f8cecc;align=center;verticalAlign=middle;whiteSpace=wrap;rounded=1;spacingBottom=0;spacingTop=0;spacingLeft=0;spacingRight=0;spacing=0;fontSize=12;" parent="3fpdJRdnF-UDucnwDFXd-1" vertex="1"><mxGeometry x="6" y="306.5" width="80" height="19" as="geometry"/></mxCell><mxCell id="xOdXs_tV_LrtNAAJluhc-69" value="&lt;span style=&quot;color: rgb(0, 0, 0); font-size: 12px; text-align: left; white-space: nowrap;&quot;&gt;1.0.0-beta.3&lt;/span&gt;" style="text;html=1;strokeColor=#b85450;fillColor=#f8cecc;align=center;verticalAlign=middle;whiteSpace=wrap;rounded=1;spacingBottom=0;spacingTop=0;spacingLeft=0;spacingRight=0;spacing=0;fontSize=12;" parent="3fpdJRdnF-UDucnwDFXd-1" vertex="1"><mxGeometry x="6" y="359.5" width="80" height="19" as="geometry"/></mxCell><mxCell id="xOdXs_tV_LrtNAAJluhc-70" value="&lt;span style=&quot;color: rgb(0, 0, 0); font-size: 12px; text-align: left; white-space: nowrap;&quot;&gt;1.0.0-rc.1&lt;/span&gt;" style="text;html=1;strokeColor=#d79b00;fillColor=#ffe6cc;align=center;verticalAlign=middle;whiteSpace=wrap;rounded=1;spacingBottom=0;spacingTop=0;spacingLeft=0;spacingRight=0;spacing=0;fontSize=12;" parent="3fpdJRdnF-UDucnwDFXd-1" vertex="1"><mxGeometry x="13.5" y="413.5" width="65" height="19" as="geometry"/></mxCell><mxCell id="xOdXs_tV_LrtNAAJluhc-71" value="&lt;span style=&quot;color: rgb(0, 0, 0); font-size: 12px; text-align: left; white-space: nowrap;&quot;&gt;1.0.0-rc.2&lt;/span&gt;" style="text;html=1;strokeColor=#d79b00;fillColor=#ffe6cc;align=center;verticalAlign=middle;whiteSpace=wrap;rounded=1;spacingBottom=0;spacingTop=0;spacingLeft=0;spacingRight=0;spacing=0;fontSize=12;" parent="3fpdJRdnF-UDucnwDFXd-1" vertex="1"><mxGeometry x="13.5" y="466.5" width="65" height="19" as="geometry"/></mxCell><mxCell id="xOdXs_tV_LrtNAAJluhc-72" value="&lt;span style=&quot;color: rgb(0, 0, 0); font-size: 12px; text-align: left; white-space: nowrap;&quot;&gt;1.0.0&lt;/span&gt;" style="text;html=1;strokeColor=#82b366;fillColor=#d5e8d4;align=center;verticalAlign=middle;whiteSpace=wrap;rounded=1;spacingBottom=0;spacingTop=0;spacingLeft=0;spacingRight=0;spacing=0;fontSize=12;" parent="3fpdJRdnF-UDucnwDFXd-1" vertex="1"><mxGeometry x="28.5" y="493.5" width="35" height="19" as="geometry"/></mxCell><mxCell id="xOdXs_tV_LrtNAAJluhc-75" value="&lt;span style=&quot;color: rgb(0, 0, 0); font-size: 12px; text-align: left; white-space: nowrap;&quot;&gt;1.0.1&lt;/span&gt;" style="text;html=1;strokeColor=#82b366;fillColor=#d5e8d4;align=center;verticalAlign=middle;whiteSpace=wrap;rounded=1;spacingBottom=0;spacingTop=0;spacingLeft=0;spacingRight=0;spacing=0;fontSize=12;" parent="3fpdJRdnF-UDucnwDFXd-1" vertex="1"><mxGeometry x="250" y="521.5" width="35" height="19" as="geometry"/></mxCell><mxCell id="xOdXs_tV_LrtNAAJluhc-76" value="&lt;span style=&quot;color: rgb(0, 0, 0); font-size: 12px; text-align: left; white-space: nowrap;&quot;&gt;1.0.2&lt;/span&gt;" style="text;html=1;strokeColor=#82b366;fillColor=#d5e8d4;align=center;verticalAlign=middle;whiteSpace=wrap;rounded=1;spacingBottom=0;spacingTop=0;spacingLeft=0;spacingRight=0;spacing=0;fontSize=12;" parent="3fpdJRdnF-UDucnwDFXd-1" vertex="1"><mxGeometry x="250" y="600.5" width="35" height="19" as="geometry"/></mxCell><mxCell id="xOdXs_tV_LrtNAAJluhc-79" value="&lt;span style=&quot;color: rgb(0 , 0 , 0) ; font-size: 12px ; text-align: left ; white-space: nowrap&quot;&gt;1.1.0&lt;/span&gt;" style="text;html=1;strokeColor=#82b366;fillColor=#d5e8d4;align=center;verticalAlign=middle;whiteSpace=wrap;rounded=1;spacingBottom=0;spacingTop=0;spacingLeft=0;spacingRight=0;spacing=0;fontSize=12;" parent="3fpdJRdnF-UDucnwDFXd-1" vertex="1"><mxGeometry x="250" y="628.5" width="35" height="19" as="geometry"/></mxCell><mxCell id="xOdXs_tV_LrtNAAJluhc-81" value="&lt;span style=&quot;color: rgb(0, 0, 0); font-size: 12px; text-align: left; white-space: nowrap;&quot;&gt;2.0.0-beta.1&lt;/span&gt;" style="text;html=1;strokeColor=#b85450;fillColor=#f8cecc;align=center;verticalAlign=middle;whiteSpace=wrap;rounded=1;spacingBottom=0;spacingTop=0;spacingLeft=0;spacingRight=0;spacing=0;fontSize=12;" parent="3fpdJRdnF-UDucnwDFXd-1" vertex="1"><mxGeometry x="6" y="653.5" width="80" height="19" as="geometry"/></mxCell><mxCell id="xOdXs_tV_LrtNAAJluhc-85" value="" style="endArrow=none;dashed=1;html=1;fontSize=12;" parent="3fpdJRdnF-UDucnwDFXd-1" edge="1"><mxGeometry width="50" height="50" relative="1" as="geometry"><mxPoint x="100" y="720" as="sourcePoint"/><mxPoint x="100" y="680" as="targetPoint"/></mxGeometry></mxCell><mxCell id="xOdXs_tV_LrtNAAJluhc-86" value="" style="endArrow=none;dashed=1;html=1;fontSize=10;" parent="3fpdJRdnF-UDucnwDFXd-1" edge="1"><mxGeometry width="50" height="50" relative="1" as="geometry"><mxPoint x="234" y="719" as="sourcePoint"/><mxPoint x="234" y="679" as="targetPoint"/></mxGeometry></mxCell><mxCell id="xOdXs_tV_LrtNAAJluhc-88" value="" style="endArrow=block;html=1;fontSize=10;exitX=1;exitY=0.5;exitDx=0;exitDy=0;entryX=0;entryY=0.5;entryDx=0;entryDy=0;endFill=1;dashed=1;" parent="3fpdJRdnF-UDucnwDFXd-1" source="xOdXs_tV_LrtNAAJluhc-13" target="xOdXs_tV_LrtNAAJluhc-16" edge="1"><mxGeometry width="50" height="50" relative="1" as="geometry"><mxPoint x="220" y="540" as="sourcePoint"/><mxPoint x="270" y="490" as="targetPoint"/></mxGeometry></mxCell><mxCell id="xOdXs_tV_LrtNAAJluhc-89" value="" style="endArrow=block;html=1;fontSize=10;exitX=1;exitY=0.5;exitDx=0;exitDy=0;entryX=0;entryY=0.5;entryDx=0;entryDy=0;endFill=1;dashed=1;" parent="3fpdJRdnF-UDucnwDFXd-1" target="xOdXs_tV_LrtNAAJluhc-21" edge="1"><mxGeometry width="50" height="50" relative="1" as="geometry"><mxPoint x="105" y="582.71" as="sourcePoint"/><mxPoint x="160" y="582.71" as="targetPoint"/></mxGeometry></mxCell><mxCell id="xOdXs_tV_LrtNAAJluhc-90" value="" style="endArrow=block;html=1;fontSize=10;exitX=1;exitY=0.5;exitDx=0;exitDy=0;entryX=0;entryY=0.5;entryDx=0;entryDy=0;endFill=1;dashed=1;" parent="3fpdJRdnF-UDucnwDFXd-1" target="xOdXs_tV_LrtNAAJluhc-23" edge="1"><mxGeometry width="50" height="50" relative="1" as="geometry"><mxPoint x="105" y="609.71" as="sourcePoint"/><mxPoint x="160" y="609.71" as="targetPoint"/></mxGeometry></mxCell><mxCell id="xOdXs_tV_LrtNAAJluhc-91" value="" style="endArrow=block;html=1;fontSize=10;exitX=1;exitY=0.5;exitDx=0;exitDy=0;entryX=0;entryY=0.5;entryDx=0;entryDy=0;endFill=1;dashed=1;" parent="3fpdJRdnF-UDucnwDFXd-1" target="xOdXs_tV_LrtNAAJluhc-30" edge="1"><mxGeometry width="50" height="50" relative="1" as="geometry"><mxPoint x="105" y="636.71" as="sourcePoint"/><mxPoint x="160" y="636.71" as="targetPoint"/></mxGeometry></mxCell><mxCell id="xOdXs_tV_LrtNAAJluhc-93" value="master branch" style="text;html=1;strokeColor=#666666;fillColor=#f5f5f5;align=center;verticalAlign=middle;whiteSpace=wrap;rounded=1;fontColor=#333333;spacingTop=2;spacingBottom=2;spacingLeft=2;spacingRight=2;comic=0;fontSize=14;strokeWidth=2;perimeterSpacing=0;" parent="3fpdJRdnF-UDucnwDFXd-1" vertex="1"><mxGeometry x="39.379999999999995" y="150" width="121.25" height="40" as="geometry"/></mxCell><mxCell id="xOdXs_tV_LrtNAAJluhc-95" value="" style="ellipse;aspect=fixed;align=left;spacingLeft=13;fontSize=10;verticalAlign=middle;" parent="3fpdJRdnF-UDucnwDFXd-1" vertex="1"><mxGeometry x="95" y="230" width="10" height="10" as="geometry"/></mxCell><mxCell id="xOdXs_tV_LrtNAAJluhc-98" value="" style="ellipse;aspect=fixed;align=left;spacingLeft=13;fontSize=10;verticalAlign=middle;" parent="3fpdJRdnF-UDucnwDFXd-1" vertex="1"><mxGeometry x="95" y="203" width="10" height="10" as="geometry"/></mxCell><mxCell id="xOdXs_tV_LrtNAAJluhc-104" value="1.x branch" style="text;html=1;strokeColor=#666666;fillColor=#f5f5f5;align=center;verticalAlign=middle;whiteSpace=wrap;rounded=1;fontColor=#333333;spacingTop=2;spacingBottom=2;spacingLeft=2;spacingRight=2;comic=0;fontSize=14;strokeWidth=2;perimeterSpacing=0;" parent="3fpdJRdnF-UDucnwDFXd-1" vertex="1"><mxGeometry x="173.38" y="441" width="121.25" height="40" as="geometry"/></mxCell></root></mxGraphModel></diagram></mxfile>